<svg xmlns="http://www.w3.org/2000/svg" viewBox="0 0 21.992 10.555"><defs><style>.a{fill:#706f6f;}</style></defs><title>car</title><path class="a" d="M14.442,8.314a2.24,2.24,0,1,0,2.24-2.24A2.241,2.241,0,0,0,14.442,8.314Zm1.565,0a.676.676,0,1,1,.676.676A.678.678,0,0,1,16.007,8.314Z"/><path class="a" d="M0,6.852V8.218a.373.373,0,0,0,.373.373h2a2.561,2.561,0,0,1-.029-.277,2.818,2.818,0,0,1,5.636,0c0,.1-.019.184-.028.277h5.941a2.75,2.75,0,0,1-.029-.277,2.818,2.818,0,0,1,5.636,0c0,.1-.019.184-.028.277h2.145a.373.373,0,0,0,.373-.373V6.77a.293.293,0,0,0-.292-.292V5.383a1.1,1.1,0,0,0-.831-1.064l-3.8-.948L14.245,1.1A4.989,4.989,0,0,0,11.12,0H6.056a1.3,1.3,0,0,0-.874.335L2.689,2.581l-.8-.044A1.1,1.1,0,0,0,.739,3.5L.371,6.478A.37.37,0,0,0,0,6.852Zm7.888-5.68h3.121a4.131,4.131,0,0,1,2.592.913l1.353,1.088L7.888,2.815ZM4.381,2.637l1.442-1.3a.641.641,0,0,1,.431-.166h.459V2.755Z"/><path class="a" d="M2.922,8.314a2.24,2.24,0,1,0,2.24-2.24A2.241,2.241,0,0,0,2.922,8.314Zm1.564,0a.676.676,0,1,1,.676.676A.678.678,0,0,1,4.486,8.314Z"/></svg>