<svg xmlns="http://www.w3.org/2000/svg" viewBox="0 0 25.915 25.914"><defs><style>.a{fill:#d63380;}.b{fill:#fff;}</style></defs><title>enjoy</title><path class="a" d="M1445.506,1755.077a12.958,12.958,0,1,1-12.957-12.957,12.957,12.957,0,0,1,12.957,12.957" transform="translate(-1419.591 -1742.12)"/><path class="b" d="M1437.393,1750.382l-3.019-1.036a0.443,0.443,0,0,0-.563.276,0.379,0.379,0,0,0,.275.5l2.716,0.921-3.191,9.339-5.08-1.718,3.191-9.339,1.05,0.346a0.415,0.415,0,0,0,.563-0.212,0.443,0.443,0,0,0-.275-0.563l-1.348-.463a0.443,0.443,0,0,0-.563.276l-3.4,9.914a0.444,0.444,0,0,0,.276.563l5.679,1.95a0.429,0.429,0,0,0,.1.022,0.448,0.448,0,0,0,.24-0.043,0.438,0.438,0,0,0,.224-0.254l3.4-9.916a0.443,0.443,0,0,0-.275-0.563" transform="translate(-1419.591 -1742.12)"/><path class="b" d="M1435.3,1754.73a0.443,0.443,0,0,0-.317-0.413l-1.157-.34-0.033-1.206a0.443,0.443,0,0,0-.809-0.238l-0.682.995-1.156-.34a0.443,0.443,0,0,0-.477.695l0.736,0.955-0.682.995a0.444,0.444,0,0,0,.015.522,0.441,0.441,0,0,0,.5.146l1.136-.4,0.737,0.956a0.442,0.442,0,0,0,.793-0.282l-0.033-1.206,1.136-.4a0.44,0.44,0,0,0,.295-0.431m-2.132,1.105,0,0.346c-0.081-.111-0.151-0.211-0.18-0.251l-0.015-.019a1.007,1.007,0,0,0-1.278-.2l0.174-.262a0.973,0.973,0,0,0-.011-1.1l-0.193-.27c0.166,0.047.305,0.089,0.305,0.089a1.088,1.088,0,0,0,1.174-.642l0,0.316a1.031,1.031,0,0,0,.864.949,1.128,1.128,0,0,0-.847,1.036" transform="translate(-1419.591 -1742.12)"/><path class="b" d="M1439.306,1748.434a0.618,0.618,0,0,1-.406-0.688,0.444,0.444,0,0,0-.3-0.5l-2.013-.669c-0.21-.069-1.744-0.6-1.952-0.671l-2.007-.689a0.444,0.444,0,0,0-.54.221,0.618,0.618,0,0,1-.74.3,0.445,0.445,0,0,0-.564.275c-0.717,2.093-4.985,14.523-4.985,14.523a0.443,0.443,0,0,0,.276.563,0.61,0.61,0,0,1,.4.692,0.444,0.444,0,0,0,.291.506l5.981,2.053a0.429,0.429,0,0,0,.1.022,0.446,0.446,0,0,0,.441-0.241,0.61,0.61,0,0,1,.6-0.332,1.088,1.088,0,0,1,.117.022,0.484,0.484,0,0,0,.358-0.013,0.439,0.439,0,0,0,.225-0.254s4.295-12.459,4.993-14.558A0.445,0.445,0,0,0,1439.306,1748.434Zm-5.331,14.571a1.884,1.884,0,0,0-1.312.532l-5.352-1.836a1.92,1.92,0,0,0-.632-1.279l4.741-13.812a1.729,1.729,0,0,0,1.24-.548l5.459,1.843a1.632,1.632,0,0,0,.647,1.146Z" transform="translate(-1419.591 -1742.12)"/></svg>