<svg xmlns="http://www.w3.org/2000/svg" viewBox="0 0 12 12"><defs><style>.a{fill:#6f6f6e;fill-rule:evenodd;}</style></defs><title>gear</title><path class="a" d="M5040.7,248.6v-1.5h-1.6a4.5,4.5,0,0,0-.7-1.8l1.6-1.4-1.1-1.3-1.7,1.5a4.5,4.5,0,0,0-1.7-.7v-1.6H5034v1.6a4.5,4.5,0,0,0-1.7.7l-1.7-1.5-1.1,1.3,1.6,1.4a4.5,4.5,0,0,0-.7,1.8h-1.6v1.5h1.6a4.5,4.5,0,0,0,.7,1.8l-1.6,1.4,1.1,1.3,1.7-1.5a4.4,4.4,0,0,0,1.7.7v1.6h1.5v-1.6a4.5,4.5,0,0,0,1.7-.7l1.7,1.5,1.1-1.3-1.6-1.4a4.5,4.5,0,0,0,.7-1.8h1.6Zm-6,1.5a2.3,2.3,0,1,1,2.3-2.3A2.3,2.3,0,0,1,5034.7,250.1Z" transform="translate(-5028.7 -241.9)"/></svg>