<svg xmlns="http://www.w3.org/2000/svg" viewBox="0 0 17.828 13.765"><defs><style>.a{fill:#036633;}</style></defs><title>host-lines</title><path class="a" d="M1587.326,1771.359h-11.237a1.439,1.439,0,0,1-1.4-1.4v-4.681a0.444,0.444,0,0,0-.469-0.469h-0.936a0.514,0.514,0,0,1-.468-0.281,0.483,0.483,0,0,1,.187-0.561l7.866-6.087a1.406,1.406,0,0,1,1.685,0l7.866,6.087a0.6,0.6,0,0,1,.187.561,0.514,0.514,0,0,1-.468.281H1589.2a0.443,0.443,0,0,0-.468.469v4.681a1.439,1.439,0,0,1-1.4,1.4m-12.735-7.491a1.5,1.5,0,0,1,1.03,1.311v4.682a0.442,0.442,0,0,0,.468.468h11.237a0.442,0.442,0,0,0,.468-0.468v-4.682a1.321,1.321,0,0,1,1.03-1.311l-6.836-5.337a0.593,0.593,0,0,0-.561,0Z" transform="translate(-1572.775 -1757.595)"/><path class="a" d="M1583.112,1770.891v-4.682a0.442,0.442,0,0,0-.468-0.468h-1.873a0.442,0.442,0,0,0-.468.468v4.682h-0.936v-4.682a1.439,1.439,0,0,1,1.4-1.4h1.873a1.439,1.439,0,0,1,1.4,1.4v4.682h-0.936Z" transform="translate(-1572.775 -1757.595)"/></svg>