<svg xmlns="http://www.w3.org/2000/svg" viewBox="0 0 17.997 20.664"><defs><style>.a{fill:#1f72b6;}</style></defs><title>innovate-lines</title><path class="a" d="M1651.743,1757.379a0.373,0.373,0,1,1-.746,0v-1.447a0.373,0.373,0,0,1,.746,0v1.447Z" transform="translate(-1642.371 -1755.56)"/><path class="a" d="M1644.181,1761.314a0.372,0.372,0,0,1-.37.645l-1.253-.724a0.371,0.371,0,1,1,.37-0.644Z" transform="translate(-1642.371 -1755.56)"/><path class="a" d="M1658.929,1761.959a0.372,0.372,0,0,1-.371-0.645l1.253-.723a0.372,0.372,0,0,1,.371.645Z" transform="translate(-1642.371 -1755.56)"/><path class="a" d="M1651.356,1759.268a6.346,6.346,0,0,0-3.685,11.513l0.078,0.052a1.392,1.392,0,0,1,.417,1.094l0,0.066v2.083a1.057,1.057,0,0,0,.576.942l2.134,1.09a1.054,1.054,0,0,0,.959,0l2.16-1.091a1.056,1.056,0,0,0,.581-0.944V1772a1.516,1.516,0,0,1,.644-1.391l0.234-.151A6.347,6.347,0,0,0,1651.356,1759.268Zm0,16.009-2.3-1.311h4.638Zm2.3-3.3v1.079h-4.571v-1.126h4.574Zm1.214-2.2a2.406,2.406,0,0,0-1.09,1.284h-4.791a1.86,1.86,0,0,0-.788-1.012A5.44,5.44,0,1,1,1654.867,1769.771Z" transform="translate(-1642.371 -1755.56)"/><path class="a" d="M1651.885,1761.383a0.53,0.53,0,0,0-.529.529,0.621,0.621,0,0,0,.7.412,2.765,2.765,0,0,1,2.644,2.694c0,0.293.067,0.646,0.358,0.646a0.529,0.529,0,0,0,.529-0.529A3.65,3.65,0,0,0,1651.885,1761.383Z" transform="translate(-1642.371 -1755.56)"/></svg>