<svg xmlns="http://www.w3.org/2000/svg" viewBox="0 0 11.11 8.73"><defs><style>.a{fill:#8c8c8c;}</style></defs><title>lang</title><path class="a" d="M134.566,2106.035a3.936,3.936,0,0,0,1.59-1.156,2.469,2.469,0,0,0,0-3.187,3.937,3.937,0,0,0-1.59-1.156,5.867,5.867,0,0,0-4.383,0,3.937,3.937,0,0,0-1.59,1.156,2.5,2.5,0,0,0-.583,1.593,2.436,2.436,0,0,0,.44,1.389,3.622,3.622,0,0,0,1.209,1.1q-0.062.149-.127,0.273a1.572,1.572,0,0,1-.155.239l-0.139.18q-0.05.065-.161,0.183t-0.143.155a0.054,0.054,0,0,0-.025.028c-0.017.023-.026,0.033-0.026,0.033s-0.012.006-.027,0.029l-0.022.034-0.016.031a0.13,0.13,0,0,0-.012.037,0.243,0.243,0,0,0,0,.04,0.126,0.126,0,0,0,.006.04,0.206,0.206,0,0,0,.071.13,0.194,0.194,0,0,0,.127.049h0.019a4.953,4.953,0,0,0,2.257-.893,6.226,6.226,0,0,0,1.091.1A5.58,5.58,0,0,0,134.566,2106.035Zm-3.469-.518-0.273.192q-0.174.118-.384,0.242l0.217-.521-0.6-.347a2.851,2.851,0,0,1-.924-0.818,1.689,1.689,0,0,1-.329-0.98,1.762,1.762,0,0,1,.487-1.184,3.322,3.322,0,0,1,1.311-.874,5.037,5.037,0,0,1,3.546,0,3.324,3.324,0,0,1,1.311.874,1.684,1.684,0,0,1,0,2.368,3.322,3.322,0,0,1-1.311.874,4.826,4.826,0,0,1-1.773.322,5.369,5.369,0,0,1-.949-0.087Z" transform="translate(-128.01 -2100.111)"/><path class="a" d="M138.68,2106.264a2.42,2.42,0,0,0-.025-2.818,3.675,3.675,0,0,0-1.265-1.1,3.191,3.191,0,0,1-.273,2.517,4.15,4.15,0,0,1-1.19,1.314,5.49,5.49,0,0,1-1.637.8,6.55,6.55,0,0,1-1.916.279q-0.186,0-.546-0.025a5.21,5.21,0,0,0,2.926.818,6.229,6.229,0,0,0,1.091-.1,4.951,4.951,0,0,0,2.257.893,0.187,0.187,0,0,0,.136-0.043,0.23,0.23,0,0,0,.081-0.136,0.044,0.044,0,0,1,.006-0.04c0.006,0,.005-0.015,0-0.04l-0.012-.037-0.015-.031a0.3,0.3,0,0,0-.022-0.034,0.272,0.272,0,0,0-.025-0.031l-0.028-.031-0.025-.028q-0.031-.037-0.143-0.155t-0.161-.183l-0.139-.18a1.568,1.568,0,0,1-.155-0.239q-0.065-.124-0.127-0.273A3.636,3.636,0,0,0,138.68,2106.264Z" transform="translate(-128.01 -2100.111)"/></svg>