<svg xmlns="http://www.w3.org/2000/svg" viewBox="0 0 20.125 15.549"><defs><style>.a{fill:#e64f1c;}</style></defs><title>learn-lines</title><path class="a" d="M1625.54,1761.11l-7.975-2.933a3.919,3.919,0,0,0-2.705,0l-7.471,2.887a1.538,1.538,0,0,0,0,2.888l7.976,2.933a4.237,4.237,0,0,0,1.329.229,2.919,2.919,0,0,0,1.283-.275l1.833-.687a0.464,0.464,0,0,0-.32-0.871l-1.834.687a2.9,2.9,0,0,1-1.971,0l-7.975-2.887a0.6,0.6,0,0,1-.412-0.55,0.651,0.651,0,0,1,.412-0.6l7.471-2.842a2.909,2.909,0,0,1,2.063,0l7.975,2.934a0.461,0.461,0,0,1,.412.5,0.633,0.633,0,0,1-.458.6l-3.208,1.237-4.859-1.971a1.1,1.1,0,0,0-.871-0.321,0.851,0.851,0,0,0-.916.459,0.808,0.808,0,0,0,.825.458l5.362,2.154v5.684a1.334,1.334,0,0,0-.916,1.283,1.375,1.375,0,0,0,2.75,0,1.322,1.322,0,0,0-.734-1.192,9.575,9.575,0,0,0,1.009-.733,0.5,0.5,0,0,0,.137-0.321V1766.2a0.458,0.458,0,1,0-.917,0v3.437a1.64,1.64,0,0,1-.458.321v-4.767l3.071-1.146a1.569,1.569,0,0,0,1.054-1.466,1.449,1.449,0,0,0-.962-1.467m-3.117,11.046a0.459,0.459,0,1,1-.458-0.458,0.433,0.433,0,0,1,.458.458" transform="translate(-1606.381 -1757.937)"/><path class="a" d="M1619.627,1771.7a0.392,0.392,0,0,0-.5-0.321,11.054,11.054,0,0,1-9.075-1.742V1766.2a0.458,0.458,0,0,0-.917,0v3.667a0.356,0.356,0,0,0,.137.32,11.848,11.848,0,0,0,7.2,2.43,12.732,12.732,0,0,0,2.842-.367,0.435,0.435,0,0,0,.321-0.55" transform="translate(-1606.381 -1757.937)"/></svg>