<svg xmlns="http://www.w3.org/2000/svg" viewBox="0 0 25.915 25.914"><defs><style>.a{fill:#3f4e55;}.b{fill:#fff;}</style></defs><title>life</title><path class="a" d="M1513.872,1755.077a12.958,12.958,0,1,1-12.957-12.957,12.957,12.957,0,0,1,12.957,12.957" transform="translate(-1487.957 -1742.12)"/><path class="b" d="M1504.565,1765.028a1.271,1.271,0,0,1-1.226-1.308l0.267-5.713a2.973,2.973,0,0,1-.468-0.778,14.816,14.816,0,0,1-.494-2.69c-0.012-.268-0.019-0.546-0.019-0.843,0-4.946,1.038-6.827,1.909-7.533a0.737,0.737,0,0,1,.931-0.074,0.841,0.841,0,0,1,.328.677v16.955A1.271,1.271,0,0,1,1504.565,1765.028Zm0.5-18.426a0.31,0.31,0,0,0-.122.064c-0.624.506-1.668,2.092-1.668,7.029,0,0.287.006,0.556,0.018,0.809a14.716,14.716,0,0,0,.458,2.51,2.2,2.2,0,0,0,.419.646l0.1,0.1-0.279,5.974a0.581,0.581,0,1,0,1.153-.016v-16.955A0.189,0.189,0,0,0,1505.065,1746.6Z" transform="translate(-1487.957 -1742.12)"/><path class="b" d="M1498.722,1765.028a1.521,1.521,0,0,1-1.507-1.308l0.417-10.56a1.843,1.843,0,0,1-1.687-1.993v-4.439a0.614,0.614,0,0,1,.188-0.436,0.913,0.913,0,0,1,.645-0.247h0.007a0.912,0.912,0,0,1,.641.246,0.617,0.617,0,0,1,.189.436l0,4.123a0.338,0.338,0,0,0,.132.032h0a0.186,0.186,0,0,0,.141-0.049v-4.105a0.853,0.853,0,0,1,1.671,0v4.122a0.224,0.224,0,0,0,.134.032,0.184,0.184,0,0,0,.14-0.049l0-4.105a0.614,0.614,0,0,1,.188-0.436,0.913,0.913,0,0,1,.645-0.247h0a0.762,0.762,0,0,1,.835.683v4.435a1.845,1.845,0,0,1-1.687,2l0.417,10.547A1.52,1.52,0,0,1,1498.722,1765.028Zm-1.941-18.332a0.263,0.263,0,0,0-.192.062l0.007,4.41a1.256,1.256,0,0,0,1.393,1.379l0.317,0.02-0.441,11.167a0.89,0.89,0,0,0,1.715-.013l-0.441-11.154,0.317-.02a1.258,1.258,0,0,0,1.394-1.384v-4.435a1.793,1.793,0,0,0-.185-0.032h0a0.26,0.26,0,0,0-.19.062l0.007,4.093a0.793,0.793,0,0,1-1.571,0v-4.122c0,0.02-.073-0.033-0.185-0.033a0.266,0.266,0,0,0-.193.063l0,4.093a0.717,0.717,0,0,1-.79.683,0.836,0.836,0,0,1-.588-0.232,0.635,0.635,0,0,1-.193-0.45l0-4.122a0.72,0.72,0,0,0-.183-0.032h0Z" transform="translate(-1487.957 -1742.12)"/></svg>