<svg xmlns="http://www.w3.org/2000/svg" viewBox="0 0 24.12681 24.12681"><defs><style>.a{fill:#dbd900;}.b{fill:#fff;}</style></defs><title>map-travel</title><circle class="a" cx="12.06341" cy="12.06341" r="12.06341"/><path class="b" d="M7.30957,6.06341h6.37883a4.375,4.375,0,0,1,4.375,4.375v6.37883a1.24617,1.24617,0,0,1-1.24617,1.24617H7.30957a1.24617,1.24617,0,0,1-1.24617-1.24617V7.30957A1.24617,1.24617,0,0,1,7.30957,6.06341Z"/><path class="a" d="M892.44866,1085.09834c0,1.36983-2.19866,4.60161-2.19866,4.60161s-2.19866-3.23178-2.19866-4.60161A2.21465,2.21465,0,1,1,892.44866,1085.09834Z" transform="translate(-878.18659 -1074.0956)"/><circle class="b" cx="12.06341" cy="10.82107" r="1.16667"/></svg>