<svg xmlns="http://www.w3.org/2000/svg" viewBox="0 0 15.293 24.195"><defs><style>.a{opacity:0.2;}.b{fill:#006533;}.c{fill:#fff;}</style></defs><title>pin-host</title><ellipse class="a" cx="7.647" cy="20.473" rx="5.675" ry="3.721"/><path class="b" d="M7.646,20.848a.376.376,0,0,1-.309-.162L1.8,12.695A8.254,8.254,0,0,1,2.5,2.508a7.282,7.282,0,0,1,10.3,0,8.266,8.266,0,0,1,.676,10.209L7.955,20.687A.376.376,0,0,1,7.646,20.848Zm.063-15.4A2.146,2.146,0,1,0,9.856,7.594,2.149,2.149,0,0,0,7.71,5.448Z"/><path class="c" d="M7.646.75a6.863,6.863,0,0,1,4.884,2.023,7.871,7.871,0,0,1,.641,9.719L7.646,20.473,2.113,12.481a7.868,7.868,0,0,1,.65-9.708A6.862,6.862,0,0,1,7.646.75m.064,9.365A2.521,2.521,0,1,0,5.189,7.594,2.525,2.525,0,0,0,7.71,10.115M7.646,0A7.607,7.607,0,0,0,2.232,2.243a8.655,8.655,0,0,0-.719,10.688L7.03,20.9a.75.75,0,0,0,.617.323h0a.75.75,0,0,0,.617-.323l5.526-7.981a8.658,8.658,0,0,0-.728-10.676A7.607,7.607,0,0,0,7.646,0ZM7.71,9.365A1.771,1.771,0,1,1,9.482,7.594,1.773,1.773,0,0,1,7.71,9.365Z"/></svg>