<svg xmlns="http://www.w3.org/2000/svg" viewBox="0 0 28.823 28.823"><defs><style>.a{fill:#dbd900;}.b{fill:#fff;}</style></defs><title>search-result</title><circle class="a" cx="14.412" cy="14.412" r="14.412"/><path class="b" d="M7.155,21.668a1.372,1.372,0,0,1,0-1.941l4.691-4.691a1.373,1.373,0,0,1,1.941,1.941L9.1,21.668A1.372,1.372,0,0,1,7.155,21.668Z"/><path class="b" d="M11.846,16.977a5.991,5.991,0,1,1,8.472,0A6,6,0,0,1,11.846,16.977Zm6.531-6.531a3.246,3.246,0,1,0,0,4.591A3.25,3.25,0,0,0,18.377,10.446Z"/></svg>