<svg xmlns="http://www.w3.org/2000/svg" viewBox="0 0 14.20581 17.76901"><defs><style>.a{fill:#f19125;}</style></defs><title>social-lines</title><path class="a" d="M1716.64168,1768.45318a1.169,1.169,0,0,0,1.14-.882l0.62292,0.622a1.18477,1.18477,0,0,0,1.675-1.676l-0.535-.534a1.18034,1.18034,0,0,0,.535-1.978l-0.745-.745a1.15867,1.15867,0,0,0,.535-0.303,1.18438,1.18438,0,0,0,0-1.675l-2.1-2.1v-2.031a0.296,0.296,0,1,0-.592,0v1.576a1.21661,1.21661,0,0,0-1.286.252,1.182,1.182,0,0,0-.22,1.36,1.14832,1.14832,0,0,0-.618.315,1.17871,1.17871,0,0,1-.838,1.675,1.17824,1.17824,0,0,1-.837,1.676,1.18434,1.18434,0,0,0,0,1.675l2.426,2.426a1.17386,1.17386,0,0,0,.837.347m-0.332-9.055a0.59147,0.59147,0,0,1,.838,0l0.116,0.116,2.187,2.187a0.59133,0.59133,0,0,1,0,.838,0.60713,0.60713,0,0,1-.83691,0l-2.30408-2.304a0.59391,0.59391,0,0,1,0-.837m-0.83691,1.675a0.59015,0.59015,0,0,1,.83691,0l3.35108,3.35a0.59395,0.59395,0,0,1,0,.838,0.60652,0.60652,0,0,1-.838,0l-1.303-1.303-1.629-1.629-0.418-.418a0.59313,0.59313,0,0,1,0-.838m-0.838,1.675a0.59377,0.59377,0,0,1,.83691-0.001l1.63,1.63,2.55908,2.559a0.59395,0.59395,0,0,1,0,.838,0.60844,0.60844,0,0,1-.838,0l-1.342-1.343h-0.001l-1.213-1.214-1.632-1.631a0.59317,0.59317,0,0,1,0-.838m-1.011,2.094a0.59254,0.59254,0,0,1,1.011-.419l0.1709,0.171,2.2561,2.256a0.59291,0.59291,0,0,1-.0011.837,0.60637,0.60637,0,0,1-.83789,0l-2.426-2.426a0.5922,0.5922,0,0,1-.173-0.419" transform="translate(-1713.03169 -1756.85516)"/><path class="a" d="M1726.05293,1764.25875a0.296,0.296,0,1,0,.59192,0,6.67673,6.67673,0,0,0-1.427-4.156,2.23138,2.23138,0,0,1-.35-0.582v-2.369a0.296,0.296,0,0,0-.592,0v2.369a1.81842,1.81842,0,0,0,.459.925,6.0624,6.0624,0,0,1,1.31812,3.813" transform="translate(-1713.03169 -1756.85516)"/><path class="a" d="M1717.47346,1773.43914a0.2966,0.2966,0,0,0-.296.296v0.592a0.296,0.296,0,1,0,.59192,0v-0.592a0.29657,0.29657,0,0,0-.2959-0.296" transform="translate(-1713.03169 -1756.85516)"/><path class="a" d="M1725.32857,1764.60473c-0.697-.464-2.884-1.733-2.993-1.796a0.61885,0.61885,0,0,0-.618.04,1.91346,1.91346,0,0,0-.699,1.41,1.74466,1.74466,0,0,0,.822,1.281c0.147,0.127.298,0.258,0.449,0.409l1.481,1.481a1.9196,1.9196,0,0,1,.2041.219,0.96617,0.96617,0,0,1,.00488.141,7.33084,7.33084,0,0,1-1.08691,1.284l-3.267,2.971a0.74132,0.74132,0,0,1-.384.21h-2.665a0.5925,0.5925,0,0,1,0-1.185h2.073a1.3077,1.3077,0,0,0,.802-0.383l2.073-2.073a0.2959,0.2959,0,0,0-.41895-0.418l-2.072,2.072a0.74148,0.74148,0,0,1-.384.21h-2.962a0.5925,0.5925,0,0,1,0-1.185h2.37a0.296,0.296,0,1,0,0-.592h-3.25793a0.592,0.592,0,0,1-.441-0.987,0.296,0.296,0,1,0-.44092-0.395,2.19356,2.19356,0,0,1,.58594,2.567,1.183,1.183,0,0,0,1.06006,1.172,1.168,1.168,0,0,0-.172.605,1.186,1.186,0,0,0,1.18494,1.184h2.665a1.29977,1.29977,0,0,0,.792-0.373l3.267-2.971c1.272-1.272,1.272-1.587,1.272-1.69a0.86375,0.86375,0,0,0-.38294-0.802l-1.48108-1.481c-0.16589-.166-0.33289-0.31-0.48-0.438a1.25224,1.25224,0,0,1-.61792-0.833,1.30515,1.30515,0,0,1,.444-0.928c0.022,0.013,2.264,1.312,2.946,1.767a3.33694,3.33694,0,0,1,1.6449,3.011c0,1.271-1,2.994-1.661,4.134a4.16635,4.16635,0,0,0-.7,1.492v0.593a0.296,0.296,0,0,0,.592,0v-0.589a6.72124,6.72124,0,0,1,.62-1.198c0.735-1.267,1.741-3.002,1.741-4.432a3.927,3.927,0,0,0-1.90894-3.504" transform="translate(-1713.03169 -1756.85516)"/></svg>