<svg xmlns="http://www.w3.org/2000/svg" viewBox="0 0 28.515 28.515"><defs><style>.a{fill:#c1c1c1;}.b{fill:#fff;}</style></defs><title>social-grey</title><circle class="a" cx="14.258" cy="14.258" r="14.258"/><path class="b" d="M9.786,17.275a1.287,1.287,0,0,0,1.255-.971l.685.684a1.3,1.3,0,1,0,1.843-1.843l-.588-.588a1.3,1.3,0,0,0,.588-2.177l-.819-.819a1.3,1.3,0,0,0,.588-2.176L11.027,7.074V4.839a.326.326,0,0,0-.652,0V6.573A1.339,1.339,0,0,0,8.96,6.85a1.3,1.3,0,0,0-.241,1.5,1.268,1.268,0,0,0-.68.347,1.3,1.3,0,0,0-.247,1.486,1.3,1.3,0,0,0-.922,1.843,1.3,1.3,0,0,0-.675,2.2l2.669,2.669A1.294,1.294,0,0,0,9.786,17.275ZM9.421,7.311a.653.653,0,0,1,.922,0l.128.128,2.406,2.407a.651.651,0,0,1,0,.922.668.668,0,0,1-.922,0L9.421,8.233A.653.653,0,0,1,9.421,7.311ZM8.5,9.155a.652.652,0,0,1,.922,0l3.687,3.686a.652.652,0,0,1,0,.922.668.668,0,0,1-.922,0l-1.434-1.434L8.96,10.537h0l-.46-.46A.653.653,0,0,1,8.5,9.155ZM7.577,11A.653.653,0,0,1,8.5,11l1.793,1.793,2.816,2.816a.651.651,0,0,1,0,.922.668.668,0,0,1-.922,0l-1.477-1.477h0L9.373,13.715l-1.8-1.8A.653.653,0,0,1,7.577,11ZM6.465,13.3a.652.652,0,0,1,1.112-.461l.188.188,2.483,2.483a.652.652,0,0,1,0,.921.668.668,0,0,1-.922,0L6.656,13.763A.648.648,0,0,1,6.465,13.3Z"/><path class="b" d="M20.141,12.66a.326.326,0,1,0,.652,0,7.344,7.344,0,0,0-1.571-4.573,2.46,2.46,0,0,1-.384-.641V4.839a.326.326,0,1,0-.652,0V7.446a2,2,0,0,0,.5,1.018A6.674,6.674,0,0,1,20.141,12.66Z"/><path class="b" d="M10.7,22.761a.326.326,0,0,0-.326.326v.652a.326.326,0,0,0,.652,0v-.652A.326.326,0,0,0,10.7,22.761Z"/><path class="b" d="M19.344,13.04c-.766-.511-3.173-1.907-3.293-1.976a.679.679,0,0,0-.68.043A2.107,2.107,0,0,0,14.6,12.66c0,.626.439,1.007.9,1.409.161.139.328.284.494.45l1.629,1.629a2.092,2.092,0,0,1,.224.241.961.961,0,0,1,.007.156,8.145,8.145,0,0,1-1.2,1.413l-3.594,3.268a.811.811,0,0,1-.422.231H9.714a.652.652,0,1,1,0-1.3H12a1.435,1.435,0,0,0,.882-.421l2.281-2.281a.326.326,0,1,0-.461-.461l-2.28,2.28A.811.811,0,0,1,12,19.5H8.737a.652.652,0,1,1,0-1.3h2.607a.326.326,0,1,0,0-.652H7.759a.652.652,0,0,1-.486-1.086.326.326,0,1,0-.485-.435,1.3,1.3,0,0,0,.834,2.159A1.289,1.289,0,0,0,8.6,20.141a1.288,1.288,0,0,0-.189.665,1.3,1.3,0,0,0,1.3,1.3h2.933a1.424,1.424,0,0,0,.871-.411l3.6-3.269c1.4-1.4,1.4-1.746,1.4-1.86,0-.432-.053-.514-.421-.882l-1.629-1.629c-.183-.183-.367-.342-.529-.482-.446-.387-.679-.6-.679-.917,0-.411.351-1.012.488-1.022.025.014,2.491,1.445,3.241,1.944a3.671,3.671,0,0,1,1.81,3.313c0,1.4-1.1,3.295-1.827,4.549a4.578,4.578,0,0,0-.77,1.642v.652a.326.326,0,0,0,.652,0v-.648a7.361,7.361,0,0,1,.682-1.318c.808-1.394,1.915-3.3,1.915-4.876A4.32,4.32,0,0,0,19.344,13.04Z"/></svg>