<svg xmlns="http://www.w3.org/2000/svg" viewBox="0 0 25.915 25.914"><defs><style>.a{fill:#f19125;}.b{fill:#fff;stroke:#fff;stroke-miterlimit:10;stroke-width:0.13px;}</style></defs><title>social</title><path class="a" d="M1480.26,1755.077a12.958,12.958,0,1,1-12.957-12.957,12.957,12.957,0,0,1,12.957,12.957" transform="translate(-1454.345 -1742.12)"/><path class="b" d="M1463.239,1757.82a1.169,1.169,0,0,0,1.14-.882l0.623,0.622a1.185,1.185,0,0,0,1.675-1.676l-0.535-.534a1.18,1.18,0,0,0,.535-1.978l-0.745-.745a1.159,1.159,0,0,0,.535-0.3,1.184,1.184,0,0,0,0-1.675l-2.1-2.1v-2.031a0.3,0.3,0,1,0-.592,0v1.576a1.217,1.217,0,0,0-1.286.252,1.182,1.182,0,0,0-.22,1.36,1.148,1.148,0,0,0-.618.315,1.179,1.179,0,0,1-.838,1.675,1.178,1.178,0,0,1-.837,1.676,1.184,1.184,0,0,0,0,1.675l2.426,2.426a1.174,1.174,0,0,0,.837.347m-0.332-9.055a0.591,0.591,0,0,1,.838,0l0.116,0.116,2.187,2.187a0.591,0.591,0,0,1,0,.838,0.607,0.607,0,0,1-.837,0l-2.3-2.3a0.594,0.594,0,0,1,0-.837m-0.837,1.675a0.59,0.59,0,0,1,.837,0l3.351,3.35a0.594,0.594,0,0,1,0,.838,0.607,0.607,0,0,1-.838,0l-1.3-1.3-1.629-1.629-0.418-.418a0.593,0.593,0,0,1,0-.838m-0.838,1.675a0.594,0.594,0,0,1,.837,0l1.63,1.63,2.559,2.559a0.594,0.594,0,0,1,0,.838,0.608,0.608,0,0,1-.838,0l-1.342-1.343h0l-1.213-1.214-1.632-1.631a0.593,0.593,0,0,1,0-.838m-1.011,2.094a0.593,0.593,0,0,1,1.011-.419l0.171,0.171,2.256,2.256a0.593,0.593,0,0,1,0,.837,0.606,0.606,0,0,1-.838,0l-2.426-2.426a0.592,0.592,0,0,1-.173-0.419" transform="translate(-1454.345 -1742.12)"/><path class="b" d="M1472.65,1753.625a0.3,0.3,0,1,0,.592,0,6.677,6.677,0,0,0-1.427-4.156,2.231,2.231,0,0,1-.35-0.582v-2.369a0.3,0.3,0,0,0-.592,0v2.369a1.818,1.818,0,0,0,.459.925,6.062,6.062,0,0,1,1.318,3.813" transform="translate(-1454.345 -1742.12)"/><path class="b" d="M1464.07,1762.805a0.3,0.3,0,0,0-.3.3v0.592a0.3,0.3,0,1,0,.592,0V1763.1a0.3,0.3,0,0,0-.3-0.3" transform="translate(-1454.345 -1742.12)"/><path class="b" d="M1471.925,1753.971c-0.7-.464-2.884-1.733-2.993-1.8a0.619,0.619,0,0,0-.618.04,1.913,1.913,0,0,0-.7,1.41,1.745,1.745,0,0,0,.822,1.281c0.147,0.127.3,0.258,0.449,0.409l1.481,1.481a1.92,1.92,0,0,1,.2.219,0.966,0.966,0,0,1,0,.141,7.331,7.331,0,0,1-1.087,1.284l-3.267,2.971a0.741,0.741,0,0,1-.384.21h-2.665a0.592,0.592,0,0,1,0-1.185h2.073a1.308,1.308,0,0,0,.8-0.383l2.073-2.073a0.3,0.3,0,0,0-.419-0.418l-2.072,2.072a0.741,0.741,0,0,1-.384.21h-2.962a0.592,0.592,0,0,1,0-1.185h2.37a0.3,0.3,0,1,0,0-.592H1461.4a0.592,0.592,0,0,1-.441-0.987,0.3,0.3,0,1,0-.441-0.395,2.194,2.194,0,0,1,.586,2.567,1.183,1.183,0,0,0,1.06,1.172,1.168,1.168,0,0,0-.172.605,1.186,1.186,0,0,0,1.185,1.184h2.665a1.3,1.3,0,0,0,.792-0.373l3.267-2.971c1.272-1.272,1.272-1.587,1.272-1.69a0.864,0.864,0,0,0-.383-0.8l-1.481-1.481c-0.166-.166-0.333-0.31-0.48-0.438a1.252,1.252,0,0,1-.618-0.833,1.305,1.305,0,0,1,.444-0.928c0.022,0.013,2.264,1.312,2.946,1.767a3.337,3.337,0,0,1,1.645,3.011c0,1.271-1,2.994-1.661,4.134a4.166,4.166,0,0,0-.7,1.492v0.593a0.3,0.3,0,0,0,.592,0v-0.589a6.721,6.721,0,0,1,.62-1.2c0.735-1.267,1.741-3,1.741-4.432a3.927,3.927,0,0,0-1.909-3.5" transform="translate(-1454.345 -1742.12)"/></svg>