<svg xmlns="http://www.w3.org/2000/svg" viewBox="0 0 11.55 7.425"><defs><style>.a{fill:#b2b2b2;}</style></defs><title>views</title><path class="a" d="M872.59,2302.37a6.884,6.884,0,0,0-2.427-2.372,6.232,6.232,0,0,0-6.439,0,6.882,6.882,0,0,0-2.427,2.372,0.832,0.832,0,0,0,0,.889,6.881,6.881,0,0,0,2.427,2.372,6.243,6.243,0,0,0,6.439,0,6.838,6.838,0,0,0,2.427-2.375A0.832,0.832,0,0,0,872.59,2302.37Zm-7.029-1.763a1.886,1.886,0,0,1,1.383-.577,0.309,0.309,0,1,1,0,.619,1.342,1.342,0,0,0-1.341,1.341,0.309,0.309,0,1,1-.619,0A1.886,1.886,0,0,1,865.561,2300.607Zm4.183,4.312a5.4,5.4,0,0,1-5.6,0,6.653,6.653,0,0,1-2.15-2.1,6.335,6.335,0,0,1,2.456-2.275,2.817,2.817,0,0,0-.393,1.45,2.888,2.888,0,0,0,5.775,0,2.816,2.816,0,0,0-.393-1.45,6.335,6.335,0,0,1,2.456,2.275A6.651,6.651,0,0,1,869.744,2304.92Z" transform="translate(-861.168 -2299.102)"/></svg>