<svg xmlns="http://www.w3.org/2000/svg" viewBox="0 0 7.934 15.18"><defs><style>.a{fill:#706f6f;}</style></defs><title>walk</title><path class="a" d="M3.6,2.452a1.143,1.143,0,0,0,.839-.387,1.189,1.189,0,0,0,.323-.871A1.224,1.224,0,0,0,4.386.339,1.111,1.111,0,0,0,3.532,0a1.143,1.143,0,0,0-.839.387,1.25,1.25,0,0,0-.339.871,1.14,1.14,0,0,0,.371.855A1.161,1.161,0,0,0,3.6,2.452Z"/><path class="a" d="M7.676,6.532,5.9,5.564,4.451,3.242a1.282,1.282,0,0,0-1.032-.516,1.187,1.187,0,0,0-.806.355L.419,5.306A.71.71,0,0,0,.29,5.6L0,8.08v.065a.528.528,0,0,0,.161.387.528.528,0,0,0,.387.161.477.477,0,0,0,.371-.161A.7.7,0,0,0,1.1,8.177l.226-2.129L2.1,5.274l-.71,5.935L.129,14.015a1.129,1.129,0,0,0-.065.355.811.811,0,0,0,.242.6.713.713,0,0,0,.6.21.746.746,0,0,0,.71-.452l1.355-3.032A.368.368,0,0,1,3,11.58q.032-.081.065-.145a.287.287,0,0,0,.032-.129l.161-1.451,1.387,4.774a.761.761,0,0,0,.806.548.774.774,0,0,0,.564-.242.811.811,0,0,0,.242-.6.264.264,0,0,0-.016-.081.266.266,0,0,1-.016-.081L4.29,7.564,4.515,5.4l.548.871a.576.576,0,0,0,.161.161L7.128,7.5a1.056,1.056,0,0,0,.258.065.505.505,0,0,0,.387-.177.583.583,0,0,0,.161-.4A.505.505,0,0,0,7.676,6.532Z"/></svg>