<?xml version="1.0" encoding="utf-8"?>
<!-- Generator: Adobe Illustrator 20.1.0, SVG Export Plug-In . SVG Version: 6.00 Build 0)  -->
<svg version="1.1" id="Capa_1" xmlns="http://www.w3.org/2000/svg" xmlns:xlink="http://www.w3.org/1999/xlink" x="0px" y="0px"
	 viewBox="0 0 28.5 28.5" style="enable-background:new 0 0 28.5 28.5;" xml:space="preserve">
<style type="text/css">
	.st0{fill:#036633;}
	.st1{fill:#FFFFFF;}
</style>
<title>enjoy-grey</title>
<g>
	<g>
		<path class="st0" d="M28.5,14.3c0,7.9-6.4,14.3-14.3,14.3C6.4,28.5,0,22.1,0,14.3C0,6.4,6.4,0,14.3,0c0,0,0,0,0,0
			C22.1,0,28.5,6.4,28.5,14.3L28.5,14.3"/>
		<path class="st1" d="M20.5,20.5H8.1c-0.8,0-1.5-0.7-1.5-1.5v-5.2c0-0.3-0.2-0.5-0.5-0.5c0,0,0,0-0.1,0H5c-0.2,0-0.4-0.1-0.5-0.3
			c-0.1-0.2,0-0.5,0.2-0.6l8.7-6.7c0.5-0.4,1.3-0.4,1.9,0l8.7,6.7c0.2,0.2,0.3,0.4,0.2,0.6c-0.1,0.2-0.3,0.3-0.5,0.3h-1
			c-0.3,0-0.5,0.2-0.5,0.5c0,0,0,0,0,0.1v5.2C22,19.8,21.3,20.4,20.5,20.5 M6.5,12.2c0.6,0.2,1.1,0.8,1.1,1.4v5.2
			c0,0.3,0.2,0.5,0.5,0.5c0,0,0,0,0.1,0h12.4c0.3,0,0.5-0.2,0.5-0.5c0,0,0,0,0-0.1v-5.2c0-0.7,0.5-1.3,1.1-1.4l-7.5-5.9
			c-0.2-0.1-0.4-0.1-0.6,0L6.5,12.2z"/>
	</g>
	<path class="st1" d="M15.8,20v-5.2c0-0.3-0.2-0.5-0.5-0.5c0,0,0,0-0.1,0h-2.1c-0.3,0-0.5,0.2-0.5,0.5c0,0,0,0,0,0.1V20h-1v-5.2
		c0-0.8,0.7-1.5,1.5-1.5h2.1c0.8,0,1.5,0.7,1.5,1.5V20H15.8L15.8,20z"/>
</g>
<text transform="matrix(1 0 0 1 8.0088 31.1734)"><tspan x="0" y="0" style="fill:#006633; font-family:'MontserratAlternates-Black'; font-size:1.4293px;">ALOJAMIENT</tspan><tspan x="13.5" y="0" style="fill:#006633; font-family:'MontserratAlternates-Black'; font-size:1.4293px;">O</tspan></text>
</svg>
