<?xml version="1.0" encoding="utf-8"?>
<!-- Generator: Adobe Illustrator 22.1.0, SVG Export Plug-In . SVG Version: 6.00 Build 0)  -->
<svg version="1.1" id="Capa_1" xmlns="http://www.w3.org/2000/svg" xmlns:xlink="http://www.w3.org/1999/xlink" x="0px" y="0px"
	 viewBox="0 0 516 516" style="enable-background:new 0 0 516 516;" xml:space="preserve">
<style type="text/css">
	.st0{fill:#31327F;}
	.st1{fill:#FFFFFF;}
</style>
<g>
	<circle class="st0" cx="258.2" cy="258.1" r="247.3"/>
	<g>
		<g>
			<path class="st1" d="M218.1,284c-8.3-2.1-15.1-6.9-15.1-6.9l-5.3,16.7l-1,3.2v-0.1l-0.9,2.6l-2.8-7.9c7.1-9.8-1.9-9.5-1.9-9.5
				s-8.9-0.4-1.9,9.5l-2.8,8l-0.9-2.7l-6.3-19.9c0,0-6.8,4.8-15.1,6.9c-3.2,0.8-4.9,3.2-5.7,5.7c-0.2,0.5-0.3,1.4-0.5,2.2
				c7.8,9.5,19.7,15.6,33,15.6c13.3,0,25.3-6.1,33.1-15.7C223.7,288.5,222.2,285,218.1,284z"/>
			<path class="st1" d="M191.2,238c-10.3,0-18.6,8.4-18.6,18.6s8.4,18.6,18.6,18.6s18.6-8.4,18.6-18.6
				C209.8,246.3,201.4,238,191.2,238z"/>
		</g>
		<g>
			<path class="st1" d="M164.8,365.5c-8.3-2.1-15.1-6.9-15.1-6.9l-5.3,16.7l-1,3.2v-0.1l-0.9,2.6l-2.8-7.9c7.1-9.8-1.9-9.5-1.9-9.5
				s-8.9-0.4-1.9,9.5l-2.8,8l-0.9-2.7l-6.3-19.9c0,0-6.8,4.8-15.1,6.9c-3.2,0.8-4.9,3.2-5.7,5.7c-0.2,0.5-0.3,1.4-0.5,2.2
				c7.8,9.5,19.7,15.6,33,15.6c13.3,0,25.3-6.1,33.1-15.7C170.5,370,168.9,366.5,164.8,365.5z"/>
			<path class="st1" d="M137.9,319.5c-10.3,0-18.6,8.4-18.6,18.6c0,10.3,8.4,18.6,18.6,18.6s18.6-8.4,18.6-18.6
				C156.5,327.8,148.2,319.5,137.9,319.5z"/>
		</g>
		<g>
			<path class="st1" d="M110.3,287c-8.3-2.1-15.1-6.9-15.1-6.9l-5.3,16.7l-1,3.2v-0.1l-0.9,2.6l-2.8-7.9c7.1-9.8-1.9-9.5-1.9-9.5
				s-8.9-0.4-1.9,9.5l-2.8,8l-0.9-2.7L71.5,280c0,0-6.8,4.8-15.1,6.9c-3.2,0.8-4.9,3.2-5.7,5.7c-0.2,0.5-0.3,1.4-0.5,2.2
				c7.8,9.5,19.7,15.6,33,15.6c13.3,0,25.3-6.1,33.1-15.7C115.9,291.4,114.4,288,110.3,287z"/>
			<path class="st1" d="M83.3,240.9c-10.3,0-18.6,8.4-18.6,18.6s8.4,18.6,18.6,18.6s18.6-8.4,18.6-18.6
				C101.9,249.2,93.6,240.9,83.3,240.9z"/>
		</g>
	</g>
	<path class="st1" d="M380.9,376c-15.1,0-30.2,0-45.4,0c0-60.5,0-121,0-181.5c37.8,0,75.6,0,113.4,0c0,60.5,0,121,0,181.5
		c-15.1,0-30.2,0-45.4,0c0-10.7,0-21.3,0-32c0-1.5-0.4-2.1-2-2c-6.2,0.1-12.4,0.1-18.6,0c-1.7,0-2.2,0.5-2.2,2.2
		C381,354.8,380.9,365.4,380.9,376z M369.6,217.2c0-3.2,0-6.4,0-9.6c0-1.2-0.3-1.8-1.7-1.8c-6.5,0.1-13,0-19.5,0
		c-1.1,0-1.6,0.4-1.6,1.5c0,6.5,0,13.1,0,19.6c0,1.2,0.5,1.5,1.6,1.5c6.5,0,13,0,19.5,0c1.4,0,1.7-0.6,1.7-1.8
		C369.6,223.6,369.6,220.4,369.6,217.2z M403.6,217.4c0-3.2,0-6.5,0-9.7c0-1.2-0.3-1.8-1.7-1.8c-6.5,0.1-13,0-19.5,0
		c-1.1,0-1.6,0.4-1.6,1.5c0,6.5,0,13.1,0,19.6c0,1.2,0.5,1.5,1.6,1.5c6.5,0,13,0,19.5,0c1.4,0,1.7-0.6,1.7-1.8
		C403.6,223.6,403.6,220.5,403.6,217.4z M437.7,217.3c0-3.2,0-6.4,0-9.6c0-1.3-0.3-1.9-1.8-1.9c-6.4,0.1-12.9,0-19.3,0
		c-1.2,0-1.7,0.4-1.7,1.6c0,6.5,0,13,0,19.5c0,1.2,0.5,1.6,1.7,1.6c6.4,0,12.9-0.1,19.3,0c1.5,0,1.8-0.6,1.8-1.9
		C437.6,223.5,437.7,220.4,437.7,217.3z M358.2,262.6c3.2,0,6.5,0,9.7,0c1.3,0,1.7-0.5,1.7-1.8c0-6.4,0-12.9,0-19.3
		c0-1.2-0.4-1.7-1.6-1.7c-6.5,0-13,0-19.5,0c-1.2,0-1.6,0.5-1.6,1.7c0,6.4,0.1,12.9,0,19.3c0,1.5,0.6,1.8,1.9,1.8
		C351.9,262.5,355,262.6,358.2,262.6z M403.6,251.3c0-3.2,0-6.5,0-9.7c0-1.3-0.5-1.7-1.8-1.7c-6.4,0-12.9,0-19.3,0
		c-1.2,0-1.7,0.4-1.7,1.6c0,6.5,0,13,0,19.5c0,1.2,0.5,1.6,1.7,1.6c6.4,0,12.9-0.1,19.3,0c1.5,0,1.8-0.6,1.8-1.9
		C403.6,257.6,403.6,254.4,403.6,251.3z M437.7,251.3c0-3.2,0-6.5,0-9.7c0-1.3-0.5-1.7-1.8-1.7c-6.4,0-12.9,0-19.3,0
		c-1.2,0-1.7,0.4-1.7,1.6c0,6.5,0,13,0,19.5c0,1.2,0.5,1.6,1.7,1.6c6.4,0,12.9-0.1,19.3,0c1.5,0,1.8-0.6,1.8-1.9
		C437.6,257.6,437.7,254.4,437.7,251.3z M358.3,296.6c3.2,0,6.4,0,9.6,0c1.2,0,1.8-0.3,1.8-1.7c-0.1-6.5,0-13,0-19.5
		c0-1.1-0.4-1.6-1.5-1.6c-6.5,0-13.1,0-19.6,0c-1.2,0-1.5,0.5-1.5,1.6c0,6.5,0,13,0,19.5c0,1.4,0.6,1.7,1.8,1.7
		C351.9,296.6,355.1,296.6,358.3,296.6z M392.2,296.6c3.2,0,6.4,0,9.6,0c1.3,0,1.9-0.3,1.9-1.8c-0.1-6.4,0-12.9,0-19.3
		c0-1.2-0.4-1.7-1.6-1.7c-6.5,0-13,0-19.5,0c-1.2,0-1.6,0.5-1.6,1.7c0,6.4,0,12.9,0,19.3c0,1.3,0.4,1.8,1.7,1.8
		C385.8,296.5,389,296.6,392.2,296.6z M437.7,285.3c0-3.2,0-6.4,0-9.6c0-1.3-0.4-1.9-1.8-1.9c-6.4,0.1-12.7,0.1-19.1,0
		c-1.4,0-1.8,0.5-1.8,1.8c0.1,6.4,0,12.7,0,19.1c0,1.3,0.4,1.8,1.7,1.8c6.4-0.1,12.9,0,19.3,0c1.3,0,1.8-0.5,1.7-1.7
		C437.6,291.7,437.7,288.5,437.7,285.3z M369.6,319.3c0-3.2,0-6.4,0-9.6c0-1.3-0.4-1.9-1.8-1.9c-6.4,0.1-12.7,0.1-19.1,0
		c-1.4,0-1.8,0.5-1.8,1.8c0.1,6.4,0,12.7,0,19.1c0,1.3,0.4,1.8,1.7,1.8c6.4-0.1,12.9,0,19.3,0c1.3,0,1.8-0.5,1.7-1.7
		C369.5,325.7,369.6,322.5,369.6,319.3z M392.3,330.6c3.2,0,6.5,0,9.7,0c1.2,0,1.6-0.4,1.6-1.7c0-6.5,0-13,0-19.5
		c0-1.1-0.3-1.6-1.5-1.6c-6.5,0-13.1,0-19.6,0c-1.1,0-1.5,0.4-1.5,1.6c0,6.5,0,13,0,19.5c0,1.4,0.5,1.7,1.8,1.7
		C385.9,330.6,389.1,330.6,392.3,330.6z M437.7,319.4c0-3.2,0-6.4,0-9.6c0-1.3-0.3-1.9-1.8-1.9c-6.4,0.1-12.9,0-19.3,0
		c-1.2,0-1.7,0.4-1.7,1.6c0,6.5,0,13,0,19.5c0,1.3,0.5,1.6,1.7,1.6c6.4,0,12.9,0,19.3,0c1.3,0,1.8-0.4,1.8-1.7
		C437.6,325.7,437.7,322.6,437.7,319.4z"/>
	<g>
		<g>
			<path class="st1" d="M347.6,152.7L315.5,98c-0.9-2-2.4-2-3.3-0.1l-4.5,10.5c-1,1.9-1.8,3.5-1.9,3.5c0,0-0.1,0-0.1,0
				c-4.6-1.4-9.4-2.3-14.7-3.4c-2.6-0.6-5.5-0.9-8.3-1.4c-1.4-0.2-2.9-0.4-4.4-0.6c-0.7-0.1-1.5-0.2-2.2-0.3
				c-0.8-0.1-1.5-0.1-2.3-0.2c-3.1-0.3-6.2-0.5-9.4-0.8c-3.2-0.2-6.5-0.2-9.8-0.3c-3.3-0.2-6.7,0.1-10.1,0.2
				c-1.7,0.1-3.4,0.1-5.1,0.2c-1.7,0.2-3.4,0.3-5.2,0.5c-3.4,0.3-6.9,0.6-10.3,1.2c-1.7,0.3-3.4,0.5-5.2,0.8
				c-1.7,0.3-3.4,0.5-5.1,0.9c-3.4,0.7-6.8,1.4-10.1,2.2c-3.3,0.9-6.6,1.8-9.9,2.7c-3.2,1-6.4,2.2-9.5,3.2c-1.6,0.5-3.1,1.1-4.6,1.7
				c-1.5,0.6-3,1.2-4.5,1.8c-1.5,0.6-2.9,1.2-4.4,1.8c-1.4,0.7-2.8,1.3-4.2,2c-2.7,1.3-5.4,2.5-8,4c-2.5,1.4-5,2.7-7.3,4.1
				c-2.3,1.4-4.5,2.8-6.6,4.2c-1.1,0.7-2.2,1.4-3.2,2c-0.9,0.7-1.9,1.4-2.8,2c-1.8,1.3-3.5,2.6-5.1,3.7c-1.6,1.2-3.1,2.2-4.5,3.4
				c-1.3,1.1-2.6,2.2-3.7,3.1c-1.5,1.3-2.8,2.4-3.9,3.3c-1.6,1.4-1.4,1.7,0.5,0.8c1.2-0.6,2.7-1.4,4.5-2.3c1.3-0.6,2.6-1.3,4.1-2.1
				c1.5-0.8,3.3-1.4,5.1-2.2c1.8-0.8,3.8-1.6,5.9-2.4c1-0.4,2.1-0.9,3.2-1.3c1.1-0.4,2.1-0.7,3.2-1.1c2.3-0.8,4.6-1.6,7.1-2.4
				c2.5-0.7,5-1.4,7.7-2.1c2.6-0.8,5.4-1.3,8.1-1.9c1.4-0.3,2.8-0.6,4.2-0.9c1.4-0.3,2.9-0.5,4.3-0.7c1.4-0.2,2.9-0.4,4.4-0.7
				c1.5-0.2,2.9-0.5,4.4-0.6c3-0.3,6-0.6,9-0.8c3-0.1,6.1-0.2,9.2-0.3c3.1,0,6.1,0.1,9.2,0.2c1.5,0,3,0.1,4.6,0.3l4.5,0.4
				c3,0.2,6,0.7,8.9,1.1c1.5,0.2,2.9,0.4,4.4,0.6c1.4,0.3,2.9,0.6,4.3,0.9c2.8,0.6,5.6,1.1,8.3,1.9c2.7,0.7,5.3,1.4,7.9,2.2
				c2.5,0.9,5,1.7,7.4,2.5c0.6,0.2,1.2,0.4,1.8,0.6c0.6,0.2,1.2,0.5,1.7,0.7c1.1,0.5,2.2,0.9,3.3,1.4c2.2,0.9,4.3,1.7,6.3,2.7
				c1.2,0.6,2.4,1.1,3.5,1.7c1.9,0.9,2.7,3.3,1.8,5.2l-4.9,11.3c-1,1.9,0,3.1,2.1,2.6l64.1-12.2
				C347.5,156.7,348.5,154.7,347.6,152.7z"/>
		</g>
	</g>
</g>
</svg>
