<?xml version="1.0" encoding="utf-8"?>
<!-- Generator: Adobe Illustrator 20.1.0, SVG Export Plug-In . SVG Version: 6.00 Build 0)  -->
<svg version="1.1" id="Capa_1" xmlns="http://www.w3.org/2000/svg" xmlns:xlink="http://www.w3.org/1999/xlink" x="0px" y="0px"
	 viewBox="0 0 28.5 28.5" style="enable-background:new 0 0 28.5 28.5;" xml:space="preserve">
<style type="text/css">
	.st0{fill:#FFFFFF;stroke:#FFFFFF;stroke-width:0.2;stroke-miterlimit:10;}
	.st1{fill:#FFFFFF;stroke:#FFFFFF;stroke-width:0.428;stroke-miterlimit:10;}
	.st2{fill:#DDDB00;}
	.st3{fill:#FFFFFF;}
</style>
<title>enjoy-grey</title>
<path class="st0" d="M16,22.6c2-0.7,3.1-3.1,3.8-5.1c0.5-1.4,0.9-2.9,1-4.4c0-0.1,0-0.2-0.2-0.2c-3.6,0-7.1,0-10.7,0
	c-1.3,0-2.5,0-3.8,0C6.1,12.9,6,13,6,13.1c0,1.8,0.4,3.7,1.1,5.4c0.5,1.4,1.3,2.7,2.3,3.6c0.2,0.2,0.5,0.5,0.8,0.6
	c0.3,0.1,0.7,0.1,1.1,0.2C12.8,23,14.4,22.9,16,22.6c0.2,0,0.1-0.4-0.1-0.4c-1.5,0.3-3.1,0.3-4.7,0.2c-0.3,0-0.7-0.1-1-0.2
	c0,0-0.1,0-0.1-0.1c-0.3-0.2-0.6-0.5-0.9-0.8c-1.8-1.9-2.5-4.8-2.8-7.4c0-0.3-0.1-0.7-0.1-1c-0.1,0.1-0.1,0.1-0.2,0.2
	c3.6,0,7.1,0,10.7,0c1.3,0,2.5,0,3.8,0c-0.1-0.1-0.1-0.2-0.2-0.2c-0.2,1.4-0.5,2.7-0.9,4c-0.6,1.9-1.6,4.5-3.6,5.2
	C15.7,22.3,15.8,22.7,16,22.6z"/>
<g>
	<path class="st0" d="M20.7,13.9c0.4,0,0.9,0.2,1.3,0.5c1,0.7,1,2,0.7,3.1c-0.5,1.7-2.6,2.4-4.2,2.5c-0.2,0-0.2,0.4,0,0.4
		c1.8-0.1,4-0.9,4.6-2.9c0.3-1.2,0.2-2.6-0.8-3.3c-0.4-0.4-1-0.6-1.6-0.6c0,0,0,0,0,0C20.4,13.5,20.4,13.9,20.7,13.9L20.7,13.9z"/>
</g>
<g>
	<path class="st0" d="M20.4,15.1c0.2,0,0.5,0.1,0.7,0.2c0.6,0.4,0.6,1.1,0.4,1.8c-0.2,0.7-0.9,1-1.4,1.3c-0.2,0.1-0.5,0.2-0.8,0.2
		c-0.1,0-0.2,0-0.2,0c0,0-0.2,0-0.1,0c-0.2,0-0.2,0.4,0,0.4c1.1-0.2,2.6-0.7,2.9-2c0.2-0.7,0.1-1.5-0.5-1.9c-0.3-0.2-0.7-0.4-1-0.4
		C20.2,14.7,20.2,15.1,20.4,15.1L20.4,15.1z"/>
</g>
<g>
	<path class="st1" d="M6.4,15.1c0.3,0.1,0.7,0.1,1,0.1c1.3,0.1,2.5,0.1,3.8,0.1c2.8,0,5.7,0.1,8.5-0.2c0.1,0,0.2,0,0.3,0
		c0.2,0,0.1-0.4-0.1-0.4c0,0,0,0,0,0c-0.1,0-0.1,0-0.2,0c-0.3,0-0.6,0.1-0.9,0.1c-1.4,0.1-2.8,0.1-4.3,0.1c-2.6,0-5.3,0.1-7.9-0.2
		c-0.1,0-0.1,0-0.2,0c-0.1,0,0,0,0,0C6.3,14.7,6.2,15,6.4,15.1L6.4,15.1z"/>
</g>
<g>
	<path class="st1" d="M13.3,10.9c0.7-0.6,0.8-1.5,0.2-2.2c-0.3-0.3-0.6-0.5-0.8-0.9c-0.2-0.3-0.1-0.6,0-0.9c0.1-0.3,0.4-0.6,0.7-0.8
		c0.2-0.1,0-0.5-0.2-0.3c-0.6,0.5-1.2,1.3-0.9,2.1c0.3,0.7,1.2,1,1.3,1.7c0,0.3-0.1,0.5-0.2,0.7c0,0.1-0.1,0.1-0.2,0.2
		c0,0-0.1,0.1-0.1,0.1C12.9,10.7,13.1,11.1,13.3,10.9L13.3,10.9z"/>
</g>
<g>
	<path class="st1" d="M15.5,12.2c0.7-0.6,0.8-1.5,0.2-2.2c-0.3-0.3-0.6-0.5-0.8-0.9c-0.2-0.3-0.1-0.6,0-0.9c0.1-0.3,0.4-0.6,0.7-0.8
		c0.2-0.1,0-0.5-0.2-0.3c-0.6,0.5-1.2,1.3-0.9,2.1c0.3,0.7,1.2,1,1.3,1.7c0,0.3-0.1,0.5-0.2,0.7c0,0.1-0.1,0.1-0.2,0.2
		c0,0-0.1,0.1-0.1,0.1C15.1,12,15.3,12.3,15.5,12.2L15.5,12.2z"/>
</g>
<g>
	<path class="st1" d="M11.1,12.2c0.7-0.6,0.8-1.5,0.2-2.2c-0.3-0.3-0.6-0.5-0.8-0.9c-0.2-0.3-0.1-0.6,0-0.9c0.1-0.3,0.4-0.6,0.7-0.8
		c0.2-0.1,0-0.5-0.2-0.3C10.3,7.5,9.7,8.3,10,9.2c0.3,0.7,1.2,1,1.3,1.7c0,0.3-0.1,0.5-0.2,0.7c0,0.1-0.1,0.1-0.2,0.2
		c0,0-0.1,0.1-0.1,0.1C10.7,12,10.9,12.3,11.1,12.2L11.1,12.2z"/>
</g>
<g>
	<circle class="st2" cx="14.3" cy="14.3" r="14.2"/>
	<g>
		<path class="st3" d="M17.2,18.1c0-0.6-0.4-1.1-1-1.3l0.7-0.7c0.5-0.5,0.5-1.3,0-1.8c-0.5-0.5-1.3-0.5-1.8,0l-0.6,0.6
			c-0.2-0.7-0.9-1.1-1.6-0.9c-0.2,0.1-0.4,0.2-0.6,0.3l-0.8,0.8c-0.2-0.7-0.9-1.1-1.6-0.9c-0.2,0.1-0.4,0.2-0.6,0.3L7,16.9H4.8
			c-0.2,0-0.3,0.1-0.3,0.3s0.1,0.3,0.3,0.3h1.7c-0.2,0.5-0.1,1,0.3,1.4c0.4,0.4,1,0.5,1.5,0.2c0,0.3,0.2,0.5,0.3,0.7
			c0.4,0.4,1,0.5,1.5,0.2c0.1,0.7,0.8,1.2,1.5,1c0.1,0,0.2-0.1,0.3-0.1c0.1,0.7,0.8,1.2,1.5,1c0.3,0,0.5-0.2,0.7-0.4l2.7-2.7
			C17,18.8,17.2,18.5,17.2,18.1z M7.2,18.5c-0.3-0.3-0.3-0.7,0-0.9l0.1-0.1L9.8,15c0.3-0.3,0.7-0.3,0.9,0c0,0,0,0,0,0
			c0.2,0.3,0.2,0.7,0,0.9l-2.5,2.5C7.9,18.7,7.5,18.7,7.2,18.5z M9.1,19.4c-0.3-0.3-0.3-0.7,0-0.9l3.7-3.7c0.3-0.3,0.7-0.3,0.9,0
			c0.2,0.3,0.2,0.7,0,0.9l-1.4,1.4L10.5,19l0,0L10,19.4C9.7,19.7,9.3,19.7,9.1,19.4z M10.9,20.3c-0.3-0.3-0.3-0.7,0-0.9l1.8-1.8
			l2.8-2.8c0.3-0.3,0.7-0.3,0.9,0c0,0,0,0,0,0c0.2,0.3,0.2,0.7,0,0.9L15,17.2l0,0l-1.3,1.3l-1.8,1.8C11.6,20.6,11.2,20.6,10.9,20.3z
			 M13.2,21.4c-0.4,0-0.7-0.3-0.7-0.7c0-0.2,0.1-0.3,0.2-0.5l0.2-0.2l2.5-2.5c0.3-0.3,0.7-0.3,0.9,0c0.2,0.3,0.2,0.7,0,0.9l-2.7,2.7
			C13.6,21.4,13.4,21.4,13.2,21.4z"/>
		<path class="st3" d="M12.6,7.8c0.2,0,0.3-0.1,0.3-0.3s-0.1-0.3-0.3-0.3c-1.7,0-3.3,0.5-4.6,1.6C7.8,8.9,7.6,9,7.4,9.1H4.8
			c-0.2,0-0.3,0.1-0.3,0.3s0.1,0.3,0.3,0.3h2.6c0.4-0.1,0.7-0.2,1-0.5C9.6,8.3,11.1,7.8,12.6,7.8z"/>
		<path class="st3" d="M22.7,17.2c0,0.2,0.1,0.3,0.3,0.3l0,0h0.7c0.2,0,0.3-0.1,0.3-0.3s-0.1-0.3-0.3-0.3H23
			C22.8,16.9,22.7,17,22.7,17.2L22.7,17.2z"/>
		<path class="st3" d="M13,8.6c-0.5,0.8-1.9,3.2-2,3.3c-0.1,0.2-0.1,0.5,0,0.7c0.4,0.5,0.9,0.7,1.6,0.8c0.6,0,1-0.4,1.4-0.9
			c0.1-0.2,0.3-0.3,0.4-0.5l1.6-1.6c0.1-0.1,0.2-0.2,0.2-0.2c0.1,0,0.1,0,0.2,0c0.5,0.3,1,0.7,1.4,1.2l3.3,3.6
			c0.1,0.1,0.2,0.3,0.2,0.4v2.9c0,0.4-0.2,0.7-0.6,0.7c-0.4,0-0.7-0.2-0.7-0.6c0,0,0-0.1,0-0.1v-2.3c0-0.3-0.2-0.6-0.4-0.9l-2.3-2.3
			c-0.1-0.1-0.3-0.1-0.5,0c-0.1,0.1-0.1,0.3,0,0.5c0,0,0,0,0,0l2.3,2.3c0.1,0.1,0.2,0.3,0.2,0.4v3.3c0,0.4-0.2,0.7-0.6,0.7
			c-0.4,0-0.7-0.2-0.7-0.6c0,0,0-0.1,0-0.1v-2.6c0-0.2-0.1-0.3-0.3-0.3c-0.2,0-0.3,0.1-0.3,0.3v3.6c0,0.4-0.3,0.7-0.7,0.7
			c-0.2,0-0.3-0.1-0.4-0.2c-0.1-0.1-0.3-0.1-0.5,0c-0.1,0.1-0.1,0.3,0,0.5c0,0,0,0,0,0c0.5,0.5,1.4,0.4,1.8-0.1
			c0.2-0.2,0.3-0.5,0.3-0.7c0.6,0.4,1.4,0.2,1.8-0.4c0.1-0.2,0.2-0.4,0.2-0.5c0.2,0.1,0.4,0.2,0.7,0.2c0.7,0,1.3-0.6,1.3-1.3v-2.9
			c0-0.3-0.2-0.6-0.4-0.9l-3.3-3.6c-1.4-1.4-1.7-1.4-1.9-1.4c-0.4,0-0.5,0.1-0.9,0.4L14,11.5c-0.2,0.2-0.3,0.4-0.5,0.5
			c-0.4,0.4-0.6,0.7-0.9,0.7c-0.4,0-1-0.4-1-0.5c0,0,1.4-2.5,1.9-3.2c0.7-1.2,2-1.9,3.3-1.8c1.4,0,3.3,1.1,4.5,1.8
			c0.5,0.4,1,0.6,1.6,0.8h0.7c0.2,0,0.3-0.1,0.3-0.3s-0.1-0.3-0.3-0.3H23c-0.5-0.2-0.9-0.4-1.3-0.7c-1.4-0.8-3.3-1.9-4.9-1.9
			C15.2,6.4,13.8,7.2,13,8.6z"/>
	</g>
</g>
</svg>
