<svg xmlns="http://www.w3.org/2000/svg" viewBox="0 0 24.1268 24.1268"><defs><style>.a{fill:#dbd900;}.b{fill:#fff;}</style></defs><title>agenda-travel-button</title><circle class="a" cx="12.0634" cy="12.0634" r="12.0634"/><path class="b" d="M7.4526,6.0634h7.8816a2.9934,2.9934,0,0,1,2.9934,2.9934V15.07a2.9934,2.9934,0,0,1-2.9934,2.9934H7.4526a1.125,1.125,0,0,1-1.125-1.125v-9.75A1.125,1.125,0,0,1,7.4526,6.0634Z"/><rect class="a" x="10.6945" y="14.3205" width="5.6643" height="1.6128" rx="0.8064" ry="0.8064"/><rect class="a" x="10.6945" y="11.257" width="5.6643" height="1.6128" rx="0.8064" ry="0.8064"/><rect class="a" x="10.6945" y="8.1935" width="5.6643" height="1.6128" rx="0.8064" ry="0.8064"/><circle class="a" cx="9.1517" cy="8.9999" r="0.8064"/><circle class="a" cx="9.1517" cy="12.0634" r="0.8064"/><circle class="a" cx="9.1517" cy="15.1269" r="0.8064"/></svg>