<?xml version="1.0" encoding="utf-8"?>
<!-- Generator: Adobe Illustrator 20.1.0, SVG Export Plug-In . SVG Version: 6.00 Build 0)  -->
<svg version="1.1" id="Capa_1" xmlns="http://www.w3.org/2000/svg" xmlns:xlink="http://www.w3.org/1999/xlink" x="0px" y="0px"
	 viewBox="0 0 28.5 28.5" style="enable-background:new 0 0 28.5 28.5;" xml:space="preserve">
<style type="text/css">
	.st0{fill:#2D2E82;}
	.st1{fill:#FFFFFF;}
</style>
<title>enjoy-grey</title>
<g>
	<g>
		<path class="st0" d="M28.5,14.3c0,7.9-6.4,14.3-14.3,14.3C6.4,28.5,0,22.1,0,14.3C0,6.4,6.4,0,14.3,0c0,0,0,0,0,0
			C22.1,0,28.5,6.4,28.5,14.3L28.5,14.3"/>
		<path class="st1" d="M22.3,10.2l-7.1-2.6c-0.8-0.3-1.6-0.3-2.4,0l-6.6,2.6c-0.7,0.3-1.1,1-0.8,1.7c0.1,0.4,0.4,0.7,0.8,0.8
			l7.1,2.6c0.4,0.1,0.8,0.2,1.2,0.2c0.4,0,0.8-0.1,1.1-0.2l1.6-0.6c0.2-0.1,0.3-0.3,0.2-0.5c-0.1-0.2-0.3-0.3-0.5-0.2l-1.6,0.6
			c-0.6,0.2-1.2,0.2-1.7,0l-7.1-2.6c-0.2-0.1-0.4-0.3-0.4-0.5c0-0.2,0.1-0.4,0.4-0.5l6.6-2.5c0.6-0.2,1.2-0.2,1.8,0L22,11
			c0.2,0,0.4,0.2,0.4,0.4c0,0.2-0.2,0.5-0.4,0.5l-2.8,1.1l-4.3-1.7c-0.2-0.2-0.5-0.3-0.8-0.3c-0.3-0.1-0.7,0.1-0.8,0.4
			c0.1,0.3,0.4,0.4,0.7,0.4l4.7,1.9v5c-0.5,0.2-0.8,0.6-0.8,1.1c0,0.7,0.5,1.2,1.2,1.2s1.2-0.5,1.2-1.2c0-0.4-0.2-0.9-0.6-1.1
			c0.3-0.2,0.6-0.4,0.9-0.6c0.1-0.1,0.1-0.2,0.1-0.3v-3.2c0-0.2-0.2-0.4-0.4-0.4s-0.4,0.2-0.4,0.4v3c-0.1,0.1-0.3,0.2-0.4,0.3v-4.2
			l2.7-1c0.6-0.2,0.9-0.7,0.9-1.3C23.2,10.9,22.9,10.4,22.3,10.2 M19.5,20c0,0.2-0.2,0.4-0.4,0.4c-0.2,0-0.4-0.2-0.4-0.4
			c0-0.2,0.2-0.4,0.4-0.4c0,0,0,0,0,0C19.4,19.5,19.5,19.7,19.5,20C19.6,19.9,19.6,19.9,19.5,20"/>
	</g>
	<path class="st1" d="M16.1,21.6c0-0.2-0.2-0.3-0.4-0.3c0,0,0,0-0.1,0c-2.8,0.7-5.7,0.1-8-1.5v-3c0-0.2-0.2-0.4-0.4-0.4
		c-0.2,0-0.4,0.2-0.4,0.4v3.2c0,0.1,0,0.2,0.1,0.3c1.8,1.4,4.1,2.2,6.4,2.2c0.8,0,1.7-0.1,2.5-0.3C16,22,16.1,21.8,16.1,21.6
		C16.1,21.6,16.1,21.6,16.1,21.6"/>
</g>
</svg>
