<?xml version="1.0" encoding="utf-8"?>
<!-- Generator: Adobe Illustrator 20.1.0, SVG Export Plug-In . SVG Version: 6.00 Build 0)  -->
<svg version="1.1" id="Capa_1" xmlns="http://www.w3.org/2000/svg" xmlns:xlink="http://www.w3.org/1999/xlink" x="0px" y="0px"
	 viewBox="0 0 28.5 28.5" style="enable-background:new 0 0 28.5 28.5;" xml:space="preserve">
<style type="text/css">
	.st0{fill:#E84E1B;}
	.st1{fill:#FFFFFF;}
</style>
<title>enjoy-grey</title>
<g>
	<circle class="st0" cx="14.3" cy="14.3" r="14.3"/>
	<path class="st1" d="M12.8,20.4c-0.1,0-0.3-0.1-0.3-0.2c0-0.1,0.1-0.3,0.2-0.3c0,0,0,0,0,0h3c0.1,0,0.2,0.1,0.2,0.3
		c0,0.1-0.1,0.2-0.2,0.2H12.8z"/>
	<path class="st1" d="M13.1,21.4c-0.1,0-0.3-0.1-0.3-0.2c0-0.1,0.1-0.3,0.2-0.3c0,0,0,0,0,0h2.3c0.1,0,0.3,0.1,0.3,0.2
		c0,0.1-0.1,0.3-0.2,0.3c0,0,0,0,0,0H13.1z"/>
	<path class="st1" d="M14,17.9c0,0.1-0.1,0.3-0.3,0.3c-0.1,0-0.3-0.1-0.3-0.3c0-0.9,0-1.8-0.2-2.6c-0.2-0.8-0.5-1.6-0.9-2.3
		c-0.1-0.1,0-0.3,0.1-0.3c0.1-0.1,0.3,0,0.3,0.1c0.4,0.7,0.8,1.6,0.9,2.4C14,16.1,14.1,17,14,17.9z"/>
	<path class="st1" d="M15,17.9c0,0.1-0.1,0.3-0.3,0.3c-0.1,0-0.3-0.1-0.3-0.3c0-0.9,0-1.8,0.2-2.7c0.2-0.8,0.5-1.7,0.9-2.4
		c0.1-0.1,0.2-0.2,0.3-0.1c0.1,0.1,0.2,0.2,0.1,0.3c-0.4,0.7-0.7,1.5-0.9,2.3C15.1,16.1,15,17,15,17.9z"/>
	<path class="st1" d="M12.6,13.1c-0.1-0.1-0.2-0.2-0.1-0.3c0-0.1,0.2-0.2,0.3-0.1c0.2,0.1,0.3,0.1,0.5,0.2l0,0
		c0.2,0.1,0.4,0.2,0.5,0.1l0.3-0.3c0.1-0.1,0.3-0.1,0.4,0c0.1,0.1,0.1,0.3,0,0.4l-0.3,0.3c-0.4,0.3-0.7,0.2-1.1,0l0,0
		C12.9,13.2,12.8,13.2,12.6,13.1z"/>
	<path class="st1" d="M14.5,7.3c0,0.1-0.1,0.2-0.3,0.2c-0.1,0-0.2-0.1-0.2-0.2v-1c0-0.1,0.1-0.2,0.3-0.2c0.1,0,0.2,0.1,0.2,0.2V7.3z
		"/>
	<path class="st1" d="M15.8,12.6c0.1-0.1,0.3,0,0.3,0.1c0.1,0.1,0,0.3-0.1,0.3c0,0,0,0-0.1,0c-0.1,0-0.3,0.1-0.4,0.2l0,0
		c-0.4,0.2-0.7,0.3-1.1,0l-0.3-0.3c-0.1-0.1-0.1-0.2,0-0.4c0.1-0.1,0.2-0.1,0.4,0l0,0l0.3,0.3c0.1,0.1,0.3,0,0.5-0.1l0,0
		C15.5,12.8,15.6,12.7,15.8,12.6z"/>
	<path class="st1" d="M17.5,10.1c1.6,1.6,1.8,4.1,0.5,5.9c-0.4,0.5-0.7,0.9-1.1,1.4c-0.5,0.4-0.8,1-0.8,1.7c0,0.1-0.1,0.3-0.3,0.3h0
		h-3c-0.1,0-0.3-0.1-0.3-0.3l0,0c0-0.7-0.3-1.3-0.8-1.7l0,0c-0.4-0.4-0.8-0.9-1.2-1.4c-0.9-1.3-1.1-2.9-0.5-4.4l0,0
		c0.5-1.1,1.3-2,2.5-2.5l0,0C14.2,8.4,16.2,8.8,17.5,10.1z M18.3,13.3c0-2.2-1.8-4-4-4c-0.5,0-1,0.1-1.5,0.3l0,0
		c-1,0.4-1.8,1.2-2.2,2.2l0,0C10,13,10.2,14.5,11,15.6c0.3,0.5,0.7,0.9,1.1,1.4l0,0c0.5,0.4,0.9,1.1,0.9,1.8h2.5
		c0-0.7,0.4-1.3,0.9-1.8c0.4-0.4,0.8-0.9,1.1-1.3C18,15,18.3,14.1,18.3,13.3L18.3,13.3z"/>
	<path class="st1" d="M13.5,22.4c-0.1,0-0.3-0.1-0.3-0.2c0-0.1,0.1-0.3,0.2-0.3c0,0,0,0,0,0h1.6c0.1,0,0.2,0.1,0.2,0.3
		c0,0.1-0.1,0.2-0.2,0.2H13.5z"/>
	<path class="st1" d="M17.4,8.2c-0.1,0.1-0.2,0.2-0.3,0.1S16.9,8.1,17,8l0.5-0.9C17.5,7,17.7,7,17.8,7c0.1,0.1,0.2,0.2,0.1,0.3l0,0
		L17.4,8.2z"/>
	<path class="st1" d="M11.6,8c0.1,0.1,0,0.3-0.1,0.3c-0.1,0.1-0.3,0-0.3-0.1l-0.5-0.9c-0.1-0.1,0-0.3,0.1-0.3C10.9,7,11,7,11.1,7.1
		L11.6,8z"/>
	<path class="st1" d="M9.4,10c0.1,0.1,0.2,0.2,0.1,0.3c-0.1,0.1-0.2,0.2-0.3,0.1l0,0L8.3,10C8.1,9.9,8.1,9.7,8.2,9.6
		c0.1-0.1,0.2-0.2,0.3-0.1L9.4,10z"/>
	<path class="st1" d="M19.4,10.5c-0.1,0.1-0.3,0-0.3-0.1c-0.1-0.1,0-0.3,0.1-0.3l0,0l0.9-0.5c0.1-0.1,0.3,0,0.3,0.1
		c0.1,0.1,0,0.3-0.1,0.3l0,0L19.4,10.5z"/>
	<path class="st1" d="M11.6,14.3c0.1,0.1,0,0.3-0.1,0.3c-0.1,0.1-0.3,0-0.3-0.1c-0.1-0.2-0.2-0.4-0.2-0.6c0-0.2-0.1-0.4-0.1-0.7
		c0-0.1,0.1-0.3,0.2-0.3c0.1,0,0.3,0.1,0.3,0.2c0,0,0,0,0,0c0,0.2,0,0.4,0.1,0.6C11.5,13.9,11.6,14.1,11.6,14.3L11.6,14.3z M11.6,12
		c-0.1,0.1-0.2,0.2-0.3,0.1c-0.1-0.1-0.2-0.2-0.1-0.3c0.1-0.2,0.2-0.4,0.3-0.6l0,0c0.2-0.4,0.6-0.7,0.9-0.9l0,0
		c0.2-0.1,0.4-0.2,0.6-0.3c0.2-0.1,0.4-0.2,0.6-0.2c0.2,0,0.4-0.1,0.7-0.1c0.1,0,0.3,0.1,0.3,0.2s-0.1,0.3-0.2,0.3c0,0,0,0,0,0
		c-0.2,0-0.4,0-0.6,0.1c-0.2,0-0.4,0.1-0.5,0.2c-0.2,0.1-0.3,0.2-0.5,0.3l0,0c-0.3,0.2-0.6,0.5-0.8,0.8l0,0
		C11.8,11.7,11.7,11.9,11.6,12z"/>
</g>
</svg>
