<?xml version="1.0" encoding="utf-8"?>
<!-- Generator: Adobe Illustrator 22.1.0, SVG Export Plug-In . SVG Version: 6.00 Build 0)  -->
<svg version="1.1" id="Capa_1" xmlns="http://www.w3.org/2000/svg" xmlns:xlink="http://www.w3.org/1999/xlink" x="0px" y="0px"
	 viewBox="0 0 516 516" style="enable-background:new 0 0 516 516;" xml:space="preserve">
<style type="text/css">
	.st0{fill:#C94F24;}
	.st1{fill:#FFFFFF;}
</style>
<g>
	<circle class="st0" cx="258" cy="258" r="247.3"/>
	<g>
		<g>
			<path class="st1" d="M228.3,199.4c-32.7,0-65.4,0.1-98.1-0.1c-6.5-0.1-8.8,1.8-8.7,8.5c0.3,39.7,0.3,79.4,0,119.1
				c-0.1,7.5,2.5,9.2,9.6,9.1c33-0.3,65.9,0.1,98.9-0.3c7.3-0.1,9,2.5,8.8,9.1c-0.4,10.2-0.2,10.4-8.9,10.5
				c-34.4,0-68.8,0.1-103.2,0c-16.2-0.1-24.3-8.3-24.4-24.6c0-55.3-0.1-110.7,0-166c0-14.8,9.1-23.8,23.1-23.8
				c4.2,0,6.3,1.1,6.1,5.6c-0.1,2.8,0.1,5.8,0.8,8.6c2.3,9.5,10.6,15.5,20.3,14.8c9.5-0.7,16.9-8.1,17.8-17.8
				c1-11.2,1-11.2,12.1-11.2c32.2,0,64.5,0.1,96.7-0.1c6,0,8.5,1.1,8.4,7.8c-0.1,13,8,21.3,19.4,21.3c11.5,0,19.4-8.3,19.2-21.4
				c-0.1-6.8,2.6-8.1,8.5-7.7c11.6,0.9,20.4,8.4,20.7,20.1c0.5,23.8,0.2,47.6,0.3,71.4c0,4.4-2,6.1-6.2,5.9c-2.6-0.1-5.3-0.1-7.9,0
				c-4.1,0.2-5.4-1.8-5.4-5.7c0.2-8.7-0.4-17.3,0.2-26c0.4-6.7-3-7.3-8.2-7.3C294.7,199.4,261.5,199.4,228.3,199.4z"/>
			<g>
				<path class="st1" d="M413.9,335.8c0,43-35.1,78-78.1,78c-43-0.1-77.9-35.3-77.7-78.3c0.2-42.7,35-77.5,77.7-77.6
					C378.8,257.8,413.9,292.8,413.9,335.8z M335.1,394.1c31.8,0.7,58.4-25.1,59.1-57.4c0.7-31.8-25.1-58.4-57.4-59.1
					c-31.8-0.7-58.4,25.1-59.1,57.4C277,366.8,302.8,393.3,335.1,394.1z"/>
			</g>
			<path class="st1" d="M199.5,296.2c0-18.9,0-18.9,18.9-18.9c4.3,0,8.7,0.2,13,0c5.1-0.3,7.5,1.3,7.3,6.9c-0.3,8.6-0.2,17.3,0,25.9
				c0.1,4.6-1.6,6.5-6.3,6.4c-8.9-0.2-17.8-0.2-26.7,0c-4.8,0.1-6.4-2-6.2-6.5C199.7,305.4,199.5,300.8,199.5,296.2z"/>
			<path class="st1" d="M219.6,218.9c18.9,0,18.9,0,18.9,18.6c0,20.3,0,20.3-20.1,20.3c-18.9,0-18.9,0-18.9-18.6
				C199.5,218.9,199.5,218.9,219.6,218.9z"/>
			<path class="st1" d="M180.1,296.9c0,4.6-0.2,9.1,0.1,13.7c0.3,4.5-1.8,5.9-5.9,5.8c-9.1-0.1-18.2-0.1-27.3,0
				c-4.1,0-6-1.4-5.9-5.9c0.3-9.1,0.3-18.2,0-27.3c-0.1-4.5,1.8-5.9,5.9-5.8c9.1,0.1,18.2,0.1,27.3,0c4.1,0,6.2,1.4,5.9,5.9
				C179.8,287.7,180.1,292.3,180.1,296.9z"/>
			<path class="st1" d="M180.1,238.7c0,19.2,0,19.2-19.1,19.2c-19.9,0-19.9,0-19.9-19.8c0-19.2,0-19.2,19.1-19.2
				C180.1,218.9,180.1,218.9,180.1,238.7z"/>
			<path class="st1" d="M258,237.7c0-18.8,0-18.8,18.7-18.8c5,0,10.1,0.1,15.1,0c3.6-0.1,5.2,1.3,5.1,5c-0.1,9.6-0.1,19.2,0,28.8
				c0,3.6-1.3,5.2-5,5.1c-9.6-0.1-19.2-0.1-28.8,0c-3.6,0-5.3-1.3-5.1-5C258.2,247.8,258,242.8,258,237.7z"/>
			<path class="st1" d="M160.5,131.5c0,6.2,0.2,12.5-0.1,18.7c-0.3,5.8-3.2,9.5-9.3,9.9c-5.5,0.3-9.7-3.7-9.8-10.1
				c-0.3-12.5-0.3-25,0-37.4c0.1-6.1,3.4-10.3,9.7-10.2c6.3,0.1,9.3,4.4,9.5,10.5C160.6,119,160.5,125.2,160.5,131.5
				C160.5,131.5,160.5,131.5,160.5,131.5z"/>
			<path class="st1" d="M316.4,131.3c0,6.2,0.3,12.5-0.1,18.7c-0.4,6.5-4.4,10.4-9.9,10c-6.1-0.4-9.2-4.2-9.3-10
				c-0.2-12.7-0.3-25.4,0-38.2c0.1-5.8,3.6-9.7,9.5-9.7c6,0,9.3,3.8,9.6,9.6C316.6,118.3,316.3,124.8,316.4,131.3
				C316.4,131.3,316.4,131.3,316.4,131.3z"/>
			<path class="st1" d="M345.5,355.2c-6.3,0-12.5,0.2-18.8-0.1c-6.2-0.2-9.9-3.8-10-10c-0.2-12.7-0.2-25.5,0-38.2
				c0.1-5.8,3.6-9.7,9.6-9.6c6,0,9.2,3.9,9.5,9.7c0.3,7.7,0.3,15.4,0.1,23.1c-0.1,4.4,1.5,6,5.9,5.9c7.2-0.2,14.4-0.2,21.6,0
				c7,0.2,11.2,4,11.3,9.6c0,5.6-4.2,9.4-11.2,9.7C357.5,355.4,351.5,355.2,345.5,355.2C345.5,355.2,345.5,355.2,345.5,355.2z"/>
		</g>
	</g>
</g>
</svg>
