<?xml version="1.0" encoding="utf-8"?>
<!-- Generator: Adobe Illustrator 22.1.0, SVG Export Plug-In . SVG Version: 6.00 Build 0)  -->
<svg version="1.1" id="Capa_1" xmlns="http://www.w3.org/2000/svg" xmlns:xlink="http://www.w3.org/1999/xlink" x="0px" y="0px"
	 viewBox="0 0 516 516" style="enable-background:new 0 0 516 516;" xml:space="preserve">
<style type="text/css">
	.st0{fill:#B9367E;}
	.st1{fill:#FFFFFF;}
</style>
<g>
	<circle class="st0" cx="258" cy="258" r="247.3"/>
	<g>
		<g>
			<g>
				<path class="st1" d="M321.4,156.9v-25l-59.4,8.1c-2.3,0.3-4.8,0.5-7.2,0.5c-2.4,0-4.8-0.2-7.2-0.5l-59.4-8.1v25
					c0,6.5,29.8,11.7,66.6,11.7S321.4,163.4,321.4,156.9z"/>
				<path class="st1" d="M363.4,104.8L260.6,84.1c-1.9-0.4-3.8-0.6-5.8-0.6c-1.9,0-3.9,0.2-5.8,0.6l-102.8,20.7
					c-6.3,1.3-6.3,10.2,0,11.5l42,8.4l60.8,12.2c1.9,0.4,3.8,0.6,5.8,0.6c1.9,0,3.9-0.2,5.8-0.6l60.8-12.2l18.9-3.8v44
					c-2.2,1.9-3.6,4.8-3.6,8c0,5.9,4.8,10.7,10.7,10.7c5.9,0,10.7-4.8,10.7-10.7c0-3.2-1.4-6.1-3.6-8v-46.8l9-1.8
					C369.7,115,369.7,106,363.4,104.8z"/>
			</g>
		</g>
		<g>
			<g>
				<path class="st1" d="M212.8,237.8h63.8c3.3,0,6-2.7,6-6c0-3.3-2.7-6-6-6h-63.8c-3.3,0-6,2.7-6,6S209.5,237.8,212.8,237.8z"/>
				<path class="st1" d="M212.8,267.3h86.9c3.3,0,6-2.7,6-6c0-3.3-2.7-6-6-6h-86.9c-3.3,0-6,2.7-6,6
					C206.8,264.6,209.5,267.3,212.8,267.3z"/>
				<path class="st1" d="M188.5,195.5H324v93.7c2.4,0.7,4.4,1.7,6,2.6c2.8-1.6,6.7-3.4,11.4-3.4c0.2,0,0.3,0,0.5,0v-93
					c0-9.9-8-17.9-17.9-17.9H188.5c-9.9,0-17.9,8-17.9,17.9v199.9c0,9.9,8,17.9,17.9,17.9h108.6v-17.9H188.5V195.5z"/>
				<path class="st1" d="M369.5,333.6c-1.3-1.2-2.9-2.5-3.2-3.6c-0.4-1.1,0.1-3.1,0.5-5c0.6-3,1.4-6.4-0.5-8.9
					c-1.9-2.6-5.3-2.9-8.4-3.2c-1.8-0.2-3.9-0.4-4.8-1.1c-0.9-0.7-1.7-2.5-2.5-4.2c-1.2-2.8-2.6-6-5.7-7c-0.6-0.2-1.2-0.3-1.8-0.3
					c-2.3,0-4.6,1.3-6.7,2.6c-1.7,1-3.5,2-4.7,2c-1.2,0-3-1-4.7-2c-2.2-1.3-4.4-2.6-6.7-2.6c-0.6,0-1.2,0.1-1.8,0.3
					c-3,1-4.4,4.2-5.7,7c-0.7,1.7-1.6,3.6-2.5,4.2c-0.9,0.7-3,0.9-4.8,1.1c-3,0.3-6.5,0.7-8.4,3.2c-1.8,2.5-1.1,5.9-0.5,8.9
					c0.4,1.9,0.8,3.9,0.5,5c-0.3,1-1.8,2.4-3.2,3.6c-2.3,2.1-5,4.4-5,7.7c0,3.2,2.6,5.6,5,7.7c1.3,1.2,2.9,2.5,3.2,3.6
					c0.4,1.1-0.1,3.1-0.5,5c-0.6,3-1.4,6.4,0.5,8.9c1.9,2.6,5.3,2.9,8.4,3.2c1.8,0.2,3.9,0.4,4.8,1.1c0.9,0.7,1.7,2.5,2.5,4.2
					c1.2,2.8,2.6,6,5.7,7c0.6,0.2,1.2,0.3,1.8,0.3c2.3,0,4.6-1.3,6.7-2.6c1.7-1,3.5-2,4.7-2c1.2,0,3,1,4.7,2
					c2.2,1.3,4.4,2.6,6.7,2.6c0.6,0,1.2-0.1,1.8-0.3c3-1,4.4-4.2,5.7-7c0.7-1.7,1.6-3.6,2.5-4.2c0.9-0.7,3-0.9,4.8-1.1
					c3-0.3,6.5-0.7,8.4-3.2c1.8-2.5,1.1-5.9,0.5-8.9c-0.4-1.9-0.8-3.9-0.5-5c0.3-1,1.8-2.4,3.2-3.6c2.3-2.1,5-4.4,5-7.7
					C374.5,338,371.8,335.6,369.5,333.6z M331.8,356.8c-8.6,0-15.5-7-15.5-15.5c0-8.6,7-15.5,15.5-15.5c8.6,0,15.5,7,15.5,15.5
					C347.3,349.8,340.4,356.8,331.8,356.8z"/>
				<path class="st1" d="M346.4,386.1c-1,0.3-2.1,0.5-3.2,0.5c-3.6,0-6.6-1.8-9-3.2c-0.7-0.4-1.8-1-2.4-1.3
					c-0.6,0.3-1.7,0.9-2.4,1.3c-2.4,1.4-5.5,3.2-9,3.2l0,0c-1.1,0-2.2-0.2-3.2-0.5c-3-1-4.9-3-6.3-5.2v49.1c0,1,0.6,1.9,1.5,2.3
					c0.9,0.4,1.9,0.2,2.7-0.4l16.8-15.4l16.8,15.4c0.5,0.4,1.1,0.6,1.7,0.6c0.3,0,0.7-0.1,1-0.2c0.9-0.4,1.5-1.3,1.5-2.3v-49.2
					C351.3,383.1,349.4,385.2,346.4,386.1z"/>
			</g>
		</g>
	</g>
</g>
</svg>
