<?xml version="1.0" encoding="utf-8"?>
<!-- Generator: Adobe Illustrator 22.1.0, SVG Export Plug-In . SVG Version: 6.00 Build 0)  -->
<svg version="1.1" id="Capa_1" xmlns="http://www.w3.org/2000/svg" xmlns:xlink="http://www.w3.org/1999/xlink" x="0px" y="0px"
	 viewBox="0 0 516 516" style="enable-background:new 0 0 516 516;" xml:space="preserve">
<style type="text/css">
	.st0{fill:#3A6639;}
	.st1{fill:#FFFFFF;}
</style>
<circle class="st0" cx="258" cy="258" r="247.3"/>
<g>
	<path class="st1" d="M427.5,235.3c-16.7,0-30.9,10.9-35.9,26l-53.2-5.3c-0.2-25.3-12.4-47.8-31.3-62l36.8-61.9
		c3.7,1.3,7.7,1.9,11.9,1.9c20.8,0,37.6-16.9,37.6-37.6s-16.9-37.7-37.6-37.7s-37.6,16.9-37.6,37.6c0,10.9,4.6,20.6,12,27.5
		l-36.8,61.9c-9.9-4.6-20.9-7.1-32.6-7.1c-19.3,0-37,7.1-50.6,18.8l-29.8-28.2c3.4-5.7,5.3-12.3,5.3-19.4
		c0-20.8-16.9-37.6-37.6-37.6s-37.6,16.9-37.6,37.6s16.9,37.6,37.6,37.6c7.9,0,15.2-2.4,21.2-6.5l29.8,28.2
		c-10,13.1-16,29.4-16,47.2c0,5.8,0.7,11.4,1.9,16.9l-64.3,21.4c-6.6-11-18.6-18.3-32.3-18.3c-20.8,0-37.6,16.9-37.6,37.6
		c0,20.8,16.9,37.6,37.6,37.6S126,334.8,126,314c0-1.4-0.1-2.7-0.3-4l64.3-21.4c12.2,26.9,39.3,45.6,70.8,45.6
		c3.2,0,6.4-0.3,9.4-0.6l11.9,51.9c-12.7,6-21.5,19-21.5,34.1c0,20.8,16.9,37.6,37.6,37.6s37.6-16.9,37.6-37.6s-16.9-37.6-37.6-37.6
		c-0.1,0-0.3,0-0.3,0L286,330.1c25.8-8.8,45.5-30.8,51-57.9l53.2,5.3c2.2,18.7,18.1,33.2,37.4,33.2c20.8,0,37.6-16.9,37.6-37.6
		S448.4,235.3,427.5,235.3z M323.7,256.2c-0.1,14.8-5.2,28.4-13.8,39.1c-0.1,0.1-0.2,0.2-0.3,0.3c-0.7-4.9-2.9-10.2-9.1-11.7
		c-12.3-3.1-22.3-10.2-22.3-10.2l-7.8,24.7l-1.4,4.7V303l-1.3,3.9l-4.2-11.7c10.4-14.5-2.8-14-2.8-14s-13.1-0.6-2.8,14l-4.2,11.8
		l-1.3-4l-9.2-29.3c0,0-10,7-22.3,10.2c-4.8,1.2-7.2,4.7-8.4,8.5c-0.2,0.8-0.5,2.2-0.7,3.5c-8.9-10.8-14.2-24.7-14.2-39.8
		c0-34.8,28.2-63,63-63s63,28.2,63,63C323.7,256.1,323.7,256.1,323.7,256.2z"/>
	<path class="st1" d="M260.8,215.9c-15.2,0-27.5,12.3-27.5,27.5c0,15.2,12.3,27.5,27.5,27.5c15.2,0,27.5-12.3,27.5-27.5
		C288.3,228.2,275.9,215.9,260.8,215.9z"/>
</g>
</svg>
