<?xml version="1.0" encoding="utf-8"?>
<!-- Generator: Adobe Illustrator 22.1.0, SVG Export Plug-In . SVG Version: 6.00 Build 0)  -->
<svg version="1.1" id="Capa_1" xmlns="http://www.w3.org/2000/svg" xmlns:xlink="http://www.w3.org/1999/xlink" x="0px" y="0px"
	 viewBox="0 0 516 516" style="enable-background:new 0 0 516 516;" xml:space="preserve">
<style type="text/css">
	.st0{fill:#DAD933;}
	.st1{fill:#FFFFFF;}
</style>
<g>
	<circle class="st0" cx="258" cy="258" r="247.3"/>
	<g>
		<path class="st1" d="M329.9,439.6c-1.4,0-2.8,0.2-4.2-0.4c-10.5-1.4-21.1-2.9-31.6-4.3c-0.5-0.1-1-0.2-1.5-0.2
			c-4.1-0.5-4.6-1.1-4.6-5.3c0-4.3,0-8.7,0.1-13c0.3-12.8,1.7-25.5,5.6-37.8c2.1-6.7,4.4-13.5,8.2-19.4c5.4-8.5,13.6-14.1,22.4-18.6
			c6.8-3.5,14-6.4,21.2-8.9c7.5-2.6,14.3-6.5,20.7-11.2c6.2-4.6,12.2-9.6,18.7-13.7c2.3-1.5,4.8-2.3,7.5-2.3c7.2-0.1,10.9,4,10.1,12
			c-0.7,6.4-4.6,10.8-9.6,14.2c-3.4,2.3-6.7,4.6-9.9,7.3c-3.5,2.9-6.8,6-9.5,9.7c-0.4,0.5-0.8,1.1-1.3,1.9c4,0.8,7.7,0.6,11.3-0.4
			c2.1-0.6,4-1.5,5.9-2.4c8.6-4.5,16.6-9.7,23.6-16.4c6-5.6,9.6-12.3,11.3-20.3c1.2-5.8,3-11.4,5.8-16.7c1.1-2,2.3-3.9,4-5.5
			c4.6-4.3,10.8-2.6,12.7,3.4c0.2,0.6,0.1,1.3,0.6,1.7c0,3.3,0,6.6,0,9.8c-0.1,0.1-0.3,0.2-0.4,0.4c-1.5,9.7-4.5,19-7.1,28.4
			c-0.9,3.4-2.4,6.5-4.4,9.3c-3.5,4.9-7.9,9-12.3,13c-5.9,5.3-11.9,10.5-16.7,16.9c-1.4,1.9-2.9,3.4-4.9,4.7
			c-12,7.5-24.8,13.2-38.2,17.3c-10.3,3.2-18.8,8.3-24.5,17.7c-3.3,5.6-4.7,11.8-5.4,18.1C332.8,432.3,332.6,436.4,329.9,439.6z"/>
		<path class="st1" d="M190.4,439.5c-1.3,0-2.6,0-3.9,0c-1.5-1.3-2.2-3-2.6-4.9c-0.4-2.5-0.9-5.1-1.2-7.7
			c-1.9-16.7-10.8-27.9-26.8-33.4c-2.9-1-5.9-1.7-8.8-2.8c-11.1-4.4-22.1-8.9-32.2-15.3c-1.5-1-3-2-4.1-3.6
			c-3.1-4.4-6.9-8.2-10.8-11.9c-5.1-4.8-10.5-9.2-15.2-14.4c-3.3-3.7-6.3-7.6-7.8-12.4c-2.3-7.7-4.6-15.3-6.4-23.1
			c-0.7-3-0.8-6.1-1.8-9c0-0.4,0-0.8,0-1.1c0.9-2.2,0.1-4.5,0.4-6.7c0.5-4.6,2.7-7.2,6.8-7.8c2.5-0.4,4.6,0.6,6.3,2.3
			c3.8,3.7,5.6,8.5,7.3,13.3c1.2,3.5,2.2,7.1,3,10.7c1.6,7.1,5.2,13,10.4,18c7.4,7.2,15.9,12.7,25.1,17.3c5,2.5,10.3,3.4,16.1,2.3
			c-1.1-2-2.5-3.7-4-5.3c-4.9-5.3-10.5-9.6-16.5-13.5c-4.7-3.1-8.3-7.1-9.6-12.8c-0.6-2.6-0.5-5.1,0.3-7.7c1-3.3,3.4-5,6.7-5.6
			c3.7-0.7,7.1,0.1,10.3,2.1c3.6,2.3,7.2,4.7,10.5,7.5c10.6,8.8,22.3,15.7,35.5,20c6.5,2.1,12.7,5.2,18.7,8.6
			c11,6.2,19,14.9,23.5,27c6.1,16.1,8.6,32.6,8.6,49.6c0,3.5,0,7.1,0,10.6c0,3.7-0.6,4.3-4.3,4.8c-10.9,1.5-21.8,3-32.8,4.5
			C190.8,439.2,190.5,439.1,190.4,439.5z"/>
		<path class="st1" d="M230.2,113.3c2.8-5.2,6.1-10.1,9.5-14.9c3.7-5.3,7.5-10.4,11.2-15.6c1.7-2.3,3.3-4.5,5.5-6.4c1,0,2,0,3,0
			c3.3,2.9,5.7,6.6,8.4,10.1c6,8.1,11.8,16.3,17,24.9c0.4,0.7,1,1.4,1.1,2.3c-0.4,0.4-0.9,0.2-1.3,0.2c-17.6,0-35.2,0-52.9,0
			c-0.4,0-0.7-0.1-1.1-0.1c-0.1-0.1-0.2-0.2-0.4-0.3C230.4,113.4,230.3,113.4,230.2,113.3z"/>
		<path class="st1" d="M258.1,118.9c9.6,0,19.2,0,28.7,0c1.7,0,2.5,0.6,3.1,2c6.4,13.9,10.5,28.4,12.7,43.5
			c3.4,24.3,1.8,48.5-2.1,72.6c-0.2,1.2-0.2,2.6-0.6,3.7c-1.2,3.3,0,5.6,2.2,8.1c5.8,6.3,11.3,12.9,17,19.2c1.5,1.6,2,3.3,1.8,5.5
			c-0.9,13-1.7,26-2.5,39.1c-0.2,4-0.5,7.9-0.8,11.9c-0.2,2.3-1.7,3.9-4,3.9c-3.5,0.1-7.1,0.1-10.6,0c-2.4,0-3.5-1.2-4.2-3.8
			c-2.4-9.9-4.9-19.8-7.2-29.7c-0.4-1.9-1.7-2.2-3.1-2.8c-0.8-0.3-0.7,0.5-0.8,0.9c-0.5,1.8-0.9,3.5-1.4,5.3c-0.6,2.2-2,3.2-4.3,3.2
			c-15.9,0-31.9,0-47.8,0c-2.5,0-3.7-1-4.4-3.3c-0.4-1.4-0.7-2.8-1.2-4.2c-0.2-0.7,0-2.1-1-1.9c-1.1,0.2-2.6,0.4-3,2.1
			c-0.9,4.1-2,8.1-3,12.1c-1.5,6.1-3,12.2-4.5,18.3c-0.7,2.8-1.9,3.7-4.8,3.8c-3,0-6.1,0-9.1,0c-3.4,0-4.8-1.3-5-4.8
			c-0.5-8.1-1-16.2-1.5-24.3c-0.5-8.7-1-17.4-1.6-26c-0.1-2,0.4-3.6,1.8-5.1c6.3-6.9,12.5-13.9,18.5-21c1.2-1.4,1.5-2.8,1.2-4.6
			c-3.1-16.9-5.1-33.9-5-51.1c0.1-24.2,4-47.6,14.1-69.8c0.9-2.1,2-2.9,4.4-2.8C239.5,119,248.8,118.9,258.1,118.9z M274.4,171.2
			c0-9-7.4-16.4-16.3-16.3c-8.9,0.1-16.2,7.3-16.2,16.3c-0.1,9,7.3,16.4,16.3,16.4C267.1,187.6,274.4,180.3,274.4,171.2z"/>
		<path class="st1" d="M267.2,323c0.2,1.3,0.4,2.7,0.6,4c0.2,1.3,0.4,2.8,2,3.1c1.6,0.3,2.6-0.9,3.2-2.1c2-3.9,2.9-8,1.7-12.4
			c-0.6-2.2-1.3-4.5-1.9-6.7c-0.6-2.5,0.5-3.5,2.9-3c3.7,0.7,6.3,3.1,8.3,6.1c4.8,7.5,5.9,15.5,2.8,24c-2,5.5-5,10.4-8,15.4
			c-0.3,0.5-0.7,1.2-1.4,1.2c-0.9,0-1-0.9-1.2-1.5c-0.4-1.3-0.7-2.5-1.2-3.8c-0.4-1.2-1-2.4-2.6-2.3c-1.7,0.1-2.2,1.4-2.4,2.7
			c-0.5,2.9-0.3,5.9,0,8.9c0.9,10-1.7,19.1-7.5,27.3c-1.1,1.5-1.8,1.5-2.4-0.2c-2.9-8.4-8.1-15.5-13.4-22.4c-3-4-4.4-8.6-4.4-13.6
			c0-0.9,0-1.7,0-2.8c-0.9,0.6-1,1.3-1.3,2c-0.7,1.5-1.6,1.7-2.7,0.6c-4.7-4.5-8.9-9.5-10.4-16.1c-1.3-5.6-0.6-10.9,2.5-15.8
			c1.3-2,2.2-4.2,3.5-6.2c2-3.1,4.6-2.9,6.4,0.3c1.3,2.4,1.9,5.1,2.6,7.7c0.2,0.7,0.3,1.5,0.6,2.2c0.3,0.8,0.3,1.9,1.1,2.1
			c1,0.2,1-1.1,1.5-1.7c0.5-0.5,0.7-1.3,1.5-1.3c0.9,0.1,1.1,0.9,1.3,1.7c0.8,3.4,1.4,6.8,2.2,10.1c0.4,1.8,1.1,3.6,2,5.3
			c0.6,1.1,1.3,2.1,2.3,3c2.7,2.2,5.4,1.8,7-1.3c1.5-2.8,2-5.8,2.7-8.8C265.6,326.5,266,324.7,267.2,323z"/>
	</g>
</g>
</svg>
