<?xml version="1.0" encoding="utf-8"?>
<!-- Generator: Adobe Illustrator 20.1.0, SVG Export Plug-In . SVG Version: 6.00 Build 0)  -->
<svg version="1.1" id="Capa_1" xmlns="http://www.w3.org/2000/svg" xmlns:xlink="http://www.w3.org/1999/xlink" x="0px" y="0px"
	 viewBox="0 0 28.5 28.5" style="enable-background:new 0 0 28.5 28.5;" xml:space="preserve">
<style type="text/css">
	.st0{fill:#D83381;}
	.st1{fill:#FFFFFF;stroke:#FFFFFF;stroke-width:0.2;stroke-miterlimit:10;}
</style>
<title>enjoy-grey</title>
<path class="st0" d="M28.5,14.3c0,7.9-6.4,14.3-14.3,14.3C6.3,28.5,0,22.2,0,14.3S6.3,0,14.2,0l0,0C22.1,0,28.5,6.4,28.5,14.3
	L28.5,14.3"/>
<path class="st1" d="M16,22.6c2-0.7,3.1-3.1,3.8-5.1c0.5-1.4,0.9-2.9,1-4.4c0-0.1,0-0.2-0.2-0.2c-3.6,0-7.1,0-10.7,0
	c-1.3,0-2.5,0-3.8,0c0,0-0.1,0.1-0.1,0.2c0,1.8,0.4,3.7,1.1,5.4c0.5,1.4,1.3,2.7,2.3,3.6c0.2,0.2,0.5,0.5,0.8,0.6s0.7,0.1,1.1,0.2
	C12.8,23,14.4,22.9,16,22.6c0.2,0,0.1-0.4-0.1-0.4c-1.5,0.3-3.1,0.3-4.7,0.2c-0.3,0-0.7-0.1-1-0.2c0,0,0,0-0.1-0.1
	c-0.3-0.2-0.6-0.5-0.9-0.8c-1.8-1.9-2.5-4.8-2.8-7.4c0-0.3,0-0.5,0-0.8c-0.1,0.1-0.2-0.1-0.3,0c3.6,0,7.1,0,10.7,0
	c1.3,0,2.5,0,3.8,0c-0.1-0.1-0.1-0.2-0.2-0.2c-0.2,1.4-0.5,2.7-0.9,4c-0.6,1.9-1.6,4.6-3.6,5.3C15.7,22.4,15.8,22.7,16,22.6z"/>
<g>
	<path class="st1" d="M20.7,13.9c0.4,0,0.9,0.2,1.3,0.5c1,0.7,1,2,0.7,3.1c-0.5,1.7-2.6,2.4-4.2,2.5c-0.2,0-0.2,0.4,0,0.4
		c1.8-0.1,4-0.9,4.6-2.9c0.3-1.2,0.2-2.6-0.8-3.3c-0.4-0.4-1-0.6-1.6-0.6l0,0C20.4,13.5,20.4,13.9,20.7,13.9L20.7,13.9z"/>
</g>
<g>
	<path class="st1" d="M20.4,15.1c0.2,0,0.5,0.1,0.7,0.2c0.6,0.4,0.6,1.1,0.4,1.8s-0.9,1-1.4,1.3c-0.2,0.1-0.5,0.2-0.8,0.2
		c-0.1,0-0.2,0-0.2,0s-0.2,0-0.1,0c-0.2,0-0.2,0.4,0,0.4c1.1-0.2,2.6-0.7,2.9-2c0.2-0.7,0.1-1.5-0.5-1.9c-0.3-0.2-0.7-0.4-1-0.4
		C20.2,14.7,20.2,15.1,20.4,15.1L20.4,15.1z"/>
</g>
<g>
	<path class="st1" d="M6.4,15.1c0.3,0.1,0.7,0.1,1,0.1c1.3,0.1,2.5,0.1,3.8,0.1c2.8,0,5.7,0.1,8.5-0.2c0.1,0,0.2,0,0.3,0
		c0.2,0,0.1-0.4-0.1-0.4l0,0c-0.1,0-0.1,0-0.2,0c-0.3,0-0.6,0.1-0.9,0.1c-1.4,0.1-2.8,0.1-4.3,0.1c-2.6,0-5.3,0.1-7.9-0.2
		c-0.1,0-0.1,0-0.2,0s0,0,0,0C6.3,14.7,6.2,15,6.4,15.1L6.4,15.1z"/>
</g>
<g>
	<path class="st1" d="M13.3,10.9c0.7-0.6,0.8-1.5,0.2-2.2c-0.3-0.3-0.6-0.5-0.8-0.9c-0.2-0.3-0.1-0.6,0-0.9s0.4-0.6,0.7-0.8
		c0.2-0.1,0-0.5-0.2-0.3c-0.6,0.5-1.2,1.3-0.9,2.1c0.3,0.7,1.2,1,1.3,1.7c0,0.3-0.1,0.5-0.2,0.7c0,0.1-0.1,0.1-0.2,0.2l-0.1,0.1
		C12.9,10.7,13.1,11.1,13.3,10.9L13.3,10.9z"/>
</g>
<g>
	<path class="st1" d="M15.5,12.2c0.7-0.6,0.8-1.5,0.2-2.2c-0.3-0.3-0.6-0.5-0.8-0.9c-0.2-0.3-0.1-0.6,0-0.9c0.1-0.3,0.4-0.6,0.7-0.8
		c0.2-0.1,0-0.5-0.2-0.3c-0.6,0.5-1.2,1.3-0.9,2.1c0.3,0.7,1.2,1,1.3,1.7c0,0.3-0.1,0.5-0.2,0.7c0,0.1-0.1,0.1-0.2,0.2l-0.1,0.1
		C15.1,12,15.3,12.3,15.5,12.2L15.5,12.2z"/>
</g>
<g>
	<path class="st1" d="M11.1,12.2c0.7-0.6,0.8-1.5,0.2-2.2c-0.3-0.3-0.6-0.5-0.8-0.9c-0.2-0.3-0.1-0.6,0-0.9c0.1-0.3,0.4-0.6,0.7-0.8
		c0.2-0.1,0-0.5-0.2-0.3c-0.7,0.4-1.3,1.2-1,2.1c0.3,0.7,1.2,1,1.3,1.7c0,0.3-0.1,0.5-0.2,0.7c0,0.1-0.1,0.1-0.2,0.2l-0.1,0.1
		C10.7,12,10.9,12.3,11.1,12.2L11.1,12.2z"/>
</g>
</svg>
