<svg xmlns="http://www.w3.org/2000/svg" viewBox="0 0 28.515 28.515"><defs><style>.a{fill:#c1c1c1;}.b{fill:#fff;}</style></defs><title>enjoy-grey</title><circle class="a" cx="14.258" cy="14.258" r="14.258"/><path class="b" d="M13.941,11.608l-2.935-.689a.419.419,0,0,0-.191.815l2.527.593-2.071,8.824-4.707-1.1,2.071-8.824.9.212a.419.419,0,1,0,.191-.815l-1.31-.307a.419.419,0,0,0-.5.312l-2.262,9.64a.419.419,0,0,0,.312.5l5.522,1.3a.419.419,0,0,0,.5-.312l2.262-9.64A.419.419,0,0,0,13.941,11.608Z"/><path class="b" d="M12.355,15.3a.418.418,0,0,0-.421-.255l-1.135.1-.441-1.05a.419.419,0,0,0-.793.067L9.3,15.265l-1.135.1a.419.419,0,0,0-.182.775l.974.59L8.7,17.834a.419.419,0,0,0,.681.413l.863-.744.974.59a.419.419,0,0,0,.6-.52l-.441-1.05.863-.744A.418.418,0,0,0,12.355,15.3Zm-1.865,1.267.06.143-.123-.074-.01-.006a.507.507,0,0,0-.6.129l.032-.138a.418.418,0,0,0-.191-.454l-.133-.08.152-.013c.262-.022.363-.246.416-.46l.055.13a.5.5,0,0,0,.548.252A.492.492,0,0,0,10.491,16.566Z"/><path class="b" d="M24.226,9.491a.416.416,0,0,0-.174-.269.575.575,0,0,1-.185-.731.42.42,0,0,0-.135-.534L22.085,6.816a.42.42,0,0,0-.547.062.575.575,0,0,1-.424.186.569.569,0,0,1-.326-.1.575.575,0,0,1-.185-.731.42.42,0,0,0-.135-.534L18.82,4.556a.42.42,0,0,0-.547.062.576.576,0,0,1-.424.186.569.569,0,0,1-.326-.1.419.419,0,0,0-.582.106L15.125,7.43l-.046-.014-1.951-.458a.42.42,0,0,0-.487.258.582.582,0,0,1-.667.353.575.575,0,0,1-.44-.613.42.42,0,0,0-.321-.448L9.264,6.051a.42.42,0,0,0-.487.258.583.583,0,0,1-.667.353.419.419,0,0,0-.5.312L7.124,9.032h0L4.294,21.094a.419.419,0,0,0,.312.5.575.575,0,0,1,.44.613.42.42,0,0,0,.321.448l1.951.458a.42.42,0,0,0,.487-.258.577.577,0,0,1,1.107.26.42.42,0,0,0,.321.448l1.951.458a.415.415,0,0,0,.095.011.421.421,0,0,0,.392-.269A.576.576,0,0,1,12.2,23.4a.835.835,0,0,1,.112.01.462.462,0,0,0,.336-.047.416.416,0,0,0,.187-.26l.391-1.667.792.548a.426.426,0,0,0,.547-.062.574.574,0,0,1,.75-.084.419.419,0,0,0,.582-.106L24.158,9.8A.416.416,0,0,0,24.226,9.491ZM21.738,10.7a.419.419,0,0,0,.106.582l.186.128L15.416,20.96a1.413,1.413,0,0,0-1.176.153l-.8-.557.28-1.193,1.308.906a.419.419,0,0,0,.582-.106l4.142-5.983a.419.419,0,1,0-.688-.477l-3.9,5.639-1.235-.855.6-2.561,1.015-.356.69.906a.421.421,0,0,0,.333.165.419.419,0,0,0,.418-.428l-.026-1.139,1.075-.377a.419.419,0,0,0-.018-.8l-1.091-.327-.026-1.139a.419.419,0,0,0-.763-.229l-.648.937-.287-.086L16,9.629l.341-.492,3.975,2.752-.506.73a.419.419,0,0,0,.688.477l.744-1.074a.424.424,0,0,0-.106-.582L16.473,8.211a.421.421,0,0,0-.582.106l-.1.145a.572.572,0,0,1-.248-.164l.646-.933.144.1.042.029a.424.424,0,0,0,.582-.106.419.419,0,0,0-.106-.582l-.186-.128.762-1.1A1.413,1.413,0,0,0,18.6,5.423l1.13.782a1.411,1.411,0,0,0,2.135,1.478L23,8.466a1.415,1.415,0,0,0,.271,1.154l-.762,1.1-.186-.128a.419.419,0,0,0-.582.106Zm-7.9,4.486c0,.012-.007.025-.01.038l-.389,1.657c-.316,1.346-.383,1.63-.4,1.7h0l-.486,2.069-.45,1.92a1.414,1.414,0,0,0-1.038.573L9.73,22.821A1.411,1.411,0,0,0,7.2,22.228l-1.338-.314a1.415,1.415,0,0,0-.675-.974L7.844,9.63l.22.052a.421.421,0,0,0,.1.011.419.419,0,0,0,.1-.826l-.22-.052.306-1.3a1.414,1.414,0,0,0,1.038-.573l1.338.314a1.411,1.411,0,0,0,2.527.593l1.34.314v0l0,.03a1.426,1.426,0,0,0,.668.941l-.306,1.3-.22-.052a.419.419,0,1,0-.191.815l.22.052-.922,3.931Zm2.249-1.427,0,.138c.006.263.224.377.434.443l-.133.047a.418.418,0,0,0-.28.4l0,.155-.089-.116-.006-.007a.423.423,0,0,0-.471-.141l-.13.045a.5.5,0,0,0,.06-.614l-.094-.123.149.045C15.784,14.108,15.959,13.936,16.087,13.757Z"/></svg>