<svg xmlns="http://www.w3.org/2000/svg" viewBox="0 0 18.52 18.52"><defs><style>.cls-1{fill:#3f4e55;}.cls-2{fill:#dedc00;}</style></defs><title>Asset 2</title><g id="Layer_2" data-name="Layer 2"><g id="Layer_1-2" data-name="Layer 1"><circle class="cls-1" cx="9.26" cy="9.26" r="9.26"/><path class="cls-2" d="M11.8,9.75l.25-2H10.12V6.54c0-.56.16-1,1-1h1V3.84a13.63,13.63,0,0,0-1.51-.08A2.36,2.36,0,0,0,8.09,6.35V7.79H6.41v2H8.09v5h2v-5Z"/><path class="cls-2" d="M8.09,14.76v-5H6.41v-2H8.09V6.35a2.36,2.36,0,0,1,2.52-2.59,13.63,13.63,0,0,1,1.51.08V5.59h-1c-.81,0-1,.39-1,1V7.79h1.94l-.25,2H10.12v5"/><rect class="cls-2" x="8.09" y="14.76" width="2.02"/></g></g></svg>