<svg xmlns="http://www.w3.org/2000/svg" viewBox="0 0 1100.35 279.81"><defs><style>.cls-1{fill:#3c3c3b;}.cls-2{fill:#706f6f;}.cls-3,.cls-4{fill:#dedc00;}.cls-3,.cls-5{fill-rule:evenodd;}.cls-5{fill:#fff;}.cls-6{fill:#9d9d9c;}</style></defs><title>Asset 1</title><g id="Layer_2" data-name="Layer 2"><g id="Layer_1-2" data-name="Layer 1"><path class="cls-1" d="M464.82,118.78v48h-6.34V120c0-16.15-9.51-25.66-25.66-25.66-19.47.45-30.79,13.43-30.79,34v38.49h-6.34v-112H402v53.88c5.28-13.28,16.45-20.38,32.3-20.68C453.5,88,464.82,99.61,464.82,118.78Z"/><path class="cls-1" d="M577.89,127.38c0,23.24-16.3,39.55-38.79,39.55-22.34,0-38.79-16.3-38.79-39.55,0-22.94,16.45-39.4,38.79-39.4C561.59,88,577.89,104.44,577.89,127.38Zm-71.39.15c0,19.77,13.74,33.51,32.6,33.51,19,0,32.6-13.74,32.6-33.51S558.11,94,539.1,94C520.23,94,506.49,107.76,506.49,127.53Z"/><path class="cls-1" d="M634.35,93.72c-11,0-19.62,4.23-19.62,13.58,0,21.13,45.89,10.72,45.89,38.49,0,14.64-13.13,21.13-27.32,21.13-11,0-21.58-3.92-28.83-10.87l2.87-4.83a38.61,38.61,0,0,0,26.27,10c11,0,20.53-4.38,21-14.34.6-22.19-45.89-12.07-45.89-39.09C608.69,94,620.61,88,634.5,88A42.71,42.71,0,0,1,657,94.17l-2.72,5.13A37.14,37.14,0,0,0,634.35,93.72Z"/><path class="cls-1" d="M729.15,161.34a28.7,28.7,0,0,1-16.3,5.59c-11.17.15-18-8.15-18-24.91V70.63h6.19V90.1h26.57v5.43H701.07v45.73c0,13.13,4.38,19.62,12.53,19.47a23.39,23.39,0,0,0,13.13-4.53Z"/><path class="cls-2" d="M837.68,86v80.75H818.06V153.95c-5.74,8.75-14.94,13.74-27,13.74-23.09,0-38.49-16.91-38.49-41.51,0-24.3,15.09-40.75,37.74-40.9,12.37-.15,21.88,4.83,27.77,13.73V86Zm-19.62,43.47v-5.74c-1.21-13-10.11-21.74-22.79-21.74-13.43,0-22.79,10.26-22.94,24.6.15,14.49,9.36,24.6,22.94,24.6C807.94,151.23,816.85,142.47,818.06,129.49Z"/><path class="cls-2" d="M943.8,86v72.15c0,23.39-16.15,38.79-40.9,38.64-12.07-.15-26.11-4.83-34.71-11.77l5.13-14.34a51.66,51.66,0,0,0,27.47,9.66c14.34,0,23.4-8.6,23.4-22.49V145.49C918.44,155,908.78,160,895,160.13c-18.26,0-29.58-12.07-29.58-31.24V86h19.77v37.28c0,11.32,6.79,18.11,18,18.11,13.13-.15,21-9.36,21-24.3V86Z"/><path class="cls-2" d="M1051.43,116.36v50.41h-19.77V122.1c0-11.32-6.79-18.26-18-18.26-13.28.15-21.13,10-21.13,23.24v39.7H972.95V86h19.62v15.09c5.74-10.72,15.85-15.7,29-15.85C1040.11,85.27,1051.43,97.19,1051.43,116.36Z"/><path class="cls-2" d="M1100.35,62.93c0,6.64-4.53,11.62-11,11.62s-11-5-11-11.62,4.53-11.62,11-11.62S1100.35,56.14,1100.35,62.93ZM1099.14,86v80.75h-19.62V86Z"/><path class="cls-3" d="M321.28,59.69a15.89,15.89,0,0,0-.07-2.45,7.1,7.1,0,0,0-.6-3.28,6.64,6.64,0,0,0,0-.94,6.7,6.7,0,0,0,0-1.05,6.65,6.65,0,0,0-1.47-4.74c0-.21.07-.67,0-.75.18-.23-.33-.7.35-.82-1.31-.6-.18-2-1.14-2.71a4,4,0,0,1-2-1.28c-2.71-.22-4.33.63-7.06.8-.67.91-.34,1.82-1.14,2.39a1.65,1.65,0,0,0,.36.63c.06.06-.26.32-.29.39a1.75,1.75,0,0,0,0,.57l0,1.3c.07,2.24.08,128,.08,130.49,0,1.28,0,2.57,0,3.85q0,1,0,1.92c0,.54-.19,1,.23,1.5a1.29,1.29,0,0,1-.36.42c.22.75,1.9,1.73,2,1.75-.32.2-.14.75-.45,1a2.21,2.21,0,0,0,.69.11,6.34,6.34,0,0,0,0,.91,4,4,0,0,0,0,1.05c-.21,1,.56,1.82,1.26,2.7-.05.1.2.43.35.48s-.4,7.92-.47,8.3c.8.19,1.64.34,1.37,1.28,2.29.77,4.7-.21,6.37-.32a4,4,0,0,0,.91-1.76c.73.14.7-.25,1.14-.32-.32-.74.25-1-.09-1.44C321.05,199.46,321.26,60.28,321.28,59.69Z"/><path class="cls-4" d="M243.15,124.18c-.29-1.91-1.54-.84-1.25-.9C241.83,124.42,242.94,124,243.15,124.18Z"/><polygon class="cls-4" points="237.84 105.03 238.35 105.28 236.77 102.81 237.84 105.03"/><path class="cls-4" d="M235.67,98l1.81,1c-.56-1.79-1.28-3.83-2-5.7a19.49,19.49,0,0,1-1.49-5c-1.39,2.1,2.08,5.86,2,9Z"/><path class="cls-4" d="M235.3,79.88c-.15-.35-.34-.84-.62-1.7-.48.82-1.34-1.67.59,2.14A3.31,3.31,0,0,1,235.3,79.88Z"/><path class="cls-4" d="M235.3,79.88c.74,1.72.13-1.36,0,0Z"/><path class="cls-4" d="M233.17,72c-1.38-2.17-1.55-1.49-1.62.12l1.62,2C233.36,73.44,232.54,71.38,233.17,72Z"/><path class="cls-4" d="M230.11,71.63c.07-.28,0-.62-.8-1l.41.5Z"/><path class="cls-4" d="M230.81,72.66c-.6,0,.11.29.94,1.16l-1.64-2.19C230,72.09,229.43,72.38,230.81,72.66Z"/><path class="cls-4" d="M232.11,75.32c.2,1.41.58,3.14-.95,1.15C233.12,80.66,234.18,79.53,232.11,75.32Z"/><path class="cls-4" d="M232.81,91.22c-.49-.64-.46-3.41-1-3.11V89l0,.92Z"/><path class="cls-4" d="M225.61,61.17c-.2-1-1-2.58-.51-3-.43.09-.47,1.27-.82,1.7l.68.64Z"/><path class="cls-4" d="M224.28,59.86l-2-1.89C223.46,60,224,60.22,224.28,59.86Z"/><path class="cls-4" d="M228.82,72.81l1.57,1.68-1.75-2.06c-.87-1-1.82-2-1.82-2l.4.73S228.05,72,228.82,72.81Z"/><path class="cls-4" d="M220.92,50.22l-1.38-.71-1.42-.66,1.13.66Z"/><path class="cls-4" d="M214.81,44.21c1.35.37,0-2,1.14-1.43A14.69,14.69,0,0,0,211.61,40,9.85,9.85,0,0,1,214.81,44.21Z"/><path class="cls-4" d="M209.3,38.81A18.55,18.55,0,0,0,211.61,40,9,9,0,0,0,209.3,38.81Z"/><path class="cls-4" d="M219.57,51.66l-.31,1.53.6.87A2.94,2.94,0,0,0,219.57,51.66Z"/><path class="cls-4" d="M219.26,53.19,218,51.29l1.26,2Z"/><path class="cls-4" d="M220,54.28l-.15-.22C219.82,54.21,219.83,54.28,220,54.28Z"/><path class="cls-4" d="M224.87,64.56c-1.34-1-3.52-3.47-2.81-.28C223.29,64.85,222.87,63,224.87,64.56Z"/><path class="cls-4" d="M219.58,56.16s.35.61.67,1.25l.65,1.26c.22-.21.32-.88,1-.4l-1.16-1.06C220.19,56.66,219.58,56.16,219.58,56.16Z"/><polygon class="cls-4" points="218.49 55.24 219.58 56.16 219.06 55.25 218.49 55.24"/><path class="cls-4" d="M211.84,43.17a16.28,16.28,0,0,1-3.22-2.62c1,1.31,2,2.67,3,3.88C212.07,44.35,213,44.47,211.84,43.17Z"/><path class="cls-4" d="M215.49,48l-.22-.17C215.3,48.05,215.36,48.18,215.49,48Z"/><path class="cls-4" d="M197.75,30.26l0,.32.17-.11Z"/><path class="cls-4" d="M211.67,44.76a3.8,3.8,0,0,0,2,1.74,25.47,25.47,0,0,1-2.06-2.08C211.46,44.45,211.37,44.5,211.67,44.76Z"/><path class="cls-4" d="M206,36.17c.3.61.68,1.26,1.07,2C206.88,37.4,206.35,36.11,206,36.17Z"/><path class="cls-4" d="M215.26,47.34l.15.11C215.36,47,215.29,47.09,215.26,47.34Z"/><path class="cls-4" d="M215.26,47.34a7.54,7.54,0,0,0-1.55-.84,14.12,14.12,0,0,0,1.56,1.36A1.84,1.84,0,0,1,215.26,47.34Z"/><path class="cls-4" d="M201.52,33.71l.63.63-.39-.16.93.7a16.46,16.46,0,0,1-2-3.76c-1.81-.88-2.36-.84-2.69-.66l2.11,1.92Z"/><path class="cls-4" d="M206.42,38.49c-1.43.13-3.78-1.37-3.43.67,2.42,2.27,2.31,1,4.07,2.07-3.95-3.72,1.54.69-.7-2.62a22.37,22.37,0,0,1,2.26,1.93c-.58-.81-1.11-1.62-1.58-2.42l0,.14,0,0h0c.06.27.05.39-.07.14a.37.37,0,0,1-.1-.07,1.11,1.11,0,0,1-.48.13c-.93-1.32,0-.39.48-.13a.81.81,0,0,0,.17-.07v0s-1.06-.9-2.18-1.72l-2.21-1.67A36.36,36.36,0,0,0,206.42,38.49Z"/><path class="cls-4" d="M218.49,63.14a.29.29,0,0,1,.14-.28C218.33,62.64,218.18,62.59,218.49,63.14Z"/><path class="cls-4" d="M218.72,57.49l.12-.27C218.77,57.17,218.74,57.29,218.72,57.49Z"/><path class="cls-4" d="M219.39,62.32c.29,1.09-.47.29-.76.53.67.46,2.1,1.8,1.33-.5l-.34-.23a13.68,13.68,0,0,1-.9-4.63,8.64,8.64,0,0,0-.81,3.46A2.66,2.66,0,0,1,219.39,62.32Z"/><path class="cls-4" d="M210.88,48l-1.67-1.5.72,2.35.39-.47c1.43,2.08,1.63,1.22,2.19,1.17C212.5,49.59,211.73,48.78,210.88,48Z"/><path class="cls-4" d="M199,28.94s-.77-.12-1.58-.19l-1.58-.15,1.92.88Z"/><polygon class="cls-4" points="193.74 25.19 192.08 24.77 192.93 25.9 193.74 25.19"/><path class="cls-4" d="M51,21l1.15.64A7.64,7.64,0,0,1,55.06,20C52.9,20.19,50.16,20.13,51,21Z"/><path class="cls-4" d="M136.93,3.2A19.46,19.46,0,0,0,132.82,2C134.79,2.89,136.27,4.09,136.93,3.2Z"/><path class="cls-4" d="M12.8,182.95c.59.61,1,.8,1.19.65C13.4,183,13,182.66,12.8,182.95Z"/><path class="cls-4" d="M132.82,2a6.16,6.16,0,0,0-4.89-.41c.29.14.58.22.88.34A15.79,15.79,0,0,1,132.82,2Z"/><path class="cls-4" d="M239.2,142.58a7.78,7.78,0,0,0,.2-2.28C239.41,140.85,239.29,141.74,239.2,142.58Z"/><path class="cls-4" d="M172.63,13c1.18.48.24,0,0,0Z"/><path class="cls-4" d="M176,19.86a.77.77,0,0,0-.7.27A1,1,0,0,1,176,19.86Z"/><path class="cls-4" d="M174.1,14.35a10.56,10.56,0,0,0-1.29-1A12.46,12.46,0,0,0,174.1,14.35Z"/><path class="cls-4" d="M174.12,13.75l.94.61C175.29,14.25,175.22,14.08,174.12,13.75Z"/><path class="cls-4" d="M172.63,13,171,12.35a13.23,13.23,0,0,1,1.82,1C172.62,13.13,172.55,13,172.63,13Z"/><path class="cls-4" d="M239.2,142.58c-.41,1.08-1.14-.2-1.81-.08,0,0,.66-1.65,1.32-3.32l.91-2.31c.25-.63.38-1.06.38-1.06-.83-.72-.72-2.58-.6-4.38s.09-3.53-.72-3.91l.25,2.2c-1-1.5-2.08-.51-3.32.72l-.38.37c.12-2.19.2-4.4.2-6.63a115.53,115.53,0,0,0-36.64-84.51,1.18,1.18,0,0,0,.34.24l.34-.51c-1-.95-2-1.38-1.61-.62-.92-.84-1.86-1.65-2.81-2.47,2.33.81,3.31-2.76,2.76-5.74-.37.31-.61.58-3.2-.64.46,1,3.82,5,1.45,4.19C193,32.19,194,32,193,30.42c.32,1.72-3.71-.64-5,.28a115.79,115.79,0,0,0-18.39-11c.19-.09.25-.24.08-.5l-1.91-.64c-1.21-1.82,4.14.11,2-1.43a32.61,32.61,0,0,1,4.52.83,15.2,15.2,0,0,1,2.4.86,13,13,0,0,1,2.33,1.53l-.19,1.78c.17-.45-1.7-2.11-2.88-2.2,1.77.2,4,4.78,6.56,4l-.84-1.21c-.41-.62-.87-1.18-.87-1.18,2.76.74,6.71,1.11,9.25,3.62-.38-2.25-.75-.32-1.74-3.32.53,3.12-7.57-4.95-5.93-1-1.1-3.14-3.3-3.07-5.42-6.27-.16.53.58,1.46-1.94-.13a3,3,0,0,1-.79.13l-.16-.13.12.13c-.15,0-.17,0,0,0a3.38,3.38,0,0,1,1,1.42c-.94.23-2.41-.23-3.9-.68a21.8,21.8,0,0,0-3.8-1c-1.47-.94.91-.27.28-1.19l-1.26,0h-1.27c.26-1.19-3.58-3.56.54-2.69L162.35,9a13.81,13.81,0,0,0-6.59-2.7c-1.64-.74-4.65.06-2.92-.43l-2.92-.43L147,5.14v-.3c-2.78-.78-5.82-.74-8.85-1a28.35,28.35,0,0,1-9.36-1.88c-1,.08-2,.17-3.12.18a22.23,22.23,0,0,1-4.07-.18L121,.86a34.35,34.35,0,0,1-4.84-.2c-1.71-.12-3.25-.18-3.75.43C111-.17,107.86-.23,104.62.37c-1.62.29-3.3.59-4.82,1a26.51,26.51,0,0,1-4,.73l.09,1.36a25.25,25.25,0,0,0-4.42,1.16,41.83,41.83,0,0,0-4.78,1.9l.54,1.09c-1.4.92-3.43,1.21-5.68,1.68-1.13.21-2.33.42-3.55.69a25,25,0,0,0-3.58,1.18c.15-.55,1.4-.92,2.34-1a10.71,10.71,0,0,0-4.66.91A26.24,26.24,0,0,0,68,13.52c-1.32.88-2.53,1.91-3.81,2.69a12,12,0,0,1-4,1.64,5.09,5.09,0,0,1-2.89,1.64,1,1,0,0,0,.26-.22,5.59,5.59,0,0,0-.5.27,16.72,16.72,0,0,0-2,.45,9.94,9.94,0,0,0,1.7-.3,23.19,23.19,0,0,0-3.32,2.66l-1.27-.72-.29.23c-1.57.45-.7,1.18.52,1.54a7.55,7.55,0,0,0-1.26,1.81c-2.2-1-2.94,2.87-5.58,2.18-.09.76-1.51,2.13-2.8,3.6-1.06,1.3-2,2.67-2,3.74a8.22,8.22,0,0,0-3.53,3.42l-1.66-.67L35,39.56l-.51,2.12c-2.27.94-3.38,1.26-2.71-1.27a43.77,43.77,0,0,1-2.33,4.5A16,16,0,0,0,27.7,49L27,48.13c-1,1.34-1.52,4.29-2.83,4.54-1.9.89-4.69,4.6-7.55,9.14s-5.64,9.95-8.39,14c1.82-.22,1,.64.07,1.76s-2,2.52-1,3.13c-.89.25-1.78,1.37-1.8-.32a32.36,32.36,0,0,1-2.08,5.67A6.83,6.83,0,0,0,2.94,91c-.87.35-.75-1.32-1.31-1,0,.43.18,1.7-.38,2.08s-.4-.87-.49-1.72c-.67,2.49-.42,4,.24,5a5.38,5.38,0,0,0,2.67,1.86,6.55,6.55,0,0,0-1.31,2.84,4.9,4.9,0,0,0,.7,2.71c-.84.73-1.82,2.06-1.52-1a51,51,0,0,0-1.3,5.89c-.34,2.46-.44,4.74.44,4.91-.47.5-.31,2.41-.15,2.88a47.71,47.71,0,0,0-.43,8.05l.31-1.06c2,1.52.45,3.15.78,6.22L1,128.6c-.65,3.55-.29,4.31-.12,5s.29,1.45-.08,5L2,138.13c1.41.16,1.2,1.7.83,3.73s-.68,4.52.2,6.41l.46-1.57c.63,1,.07,2.65-.66,4.42s-1.62,3.62-1.44,4.75c-.09.54-.6-.65-.93-1.29,0,6.2,1.83.32,3.4,4.45-.63,1-2.53-.35-1.8,2.58-.11.82,1.28,2.68,2.67,4.82s2.88,4.53,3,6.71c.27-1.1.55-2.16,1.87-.53,1.42,2.7,1.26,8.82,4.6,10.24,0,.44-.05.66-.2.76.86.89,2,2.49,3.23,3.84s2.48,2.57,3.36,2.83c-.65,1.08-.27,2.28.53,3.54a18.66,18.66,0,0,0,3.36,3.7c2.52,2.36,5,4.27,3.48,5.58,0,0,1.23,1.37,2.5,2.69l2.61,2.58-.43.15c3.1,3.56,5.06,3.93,6.89,4.33.62.91-.22.68-.43.78,2.31,2.54,3.61,3.94,5.13,4.83a21.51,21.51,0,0,0,6,2.32l-.29,1.42c.85.14,2.54,2,5,4a26.74,26.74,0,0,0,4.09,3,16.77,16.77,0,0,0,4.8,2.11,1.1,1.1,0,0,1-.94.19c3.71,1.08,7.39,3.84,10.9,5.79s6.72,3.13,8.76,1.28c0,0,1.26.14,2.54.17l2.54.1c-6-2.09,1.48-1.76-.79-3.24a7.8,7.8,0,0,1,3.39,1.64c.77.62.86,1.18-.64.91l-.4-.36c-1.76,2.23,7.44,2.72,6.94,4.29,12.38,2.31,24.81,4.11,36.79,2.93l-.79-.89-.78-.91s1-.07,2-.18l2-.2c1.13.32,1.66,1.33-1.3,1.63,1.71.91,4.82-1.55,4.8-2,5.83-.23-1.86,2.65-.11,2.38l2.38-.57-.58-.13c1.8-1.18,1.82-1.9,5.29-2.63,2.27-.12,1.4.92,2.28.79,0,.14.34.13,1.35-.25,0,0,1.28-.3,2.56-.62l2.56-.64-2.45-.91c2-1.35,4.71-1.28,1.91-2.28,2,.78,6.77-.49,11.1-2.28,2.18-.86,4.22-1.93,5.91-2.67a16.8,16.8,0,0,1,3.5-1.48,26,26,0,0,1,3.85-3.18c1.4-.95,3-1.76,4.64-2.8-1,.26-2.39-.91.53-2.53.45,1.82,2,1.37,3.83.39s4-2.3,5.87-2.18c-1.49.09.36-1.5,2-3s3-3.17.75-2.82c2.32-1.62,1,.91,3.18.13a38.74,38.74,0,0,1,3.63-3.94l4.28-3.85c1.51-1.29,3-2.68,4.43-4.17a34.14,34.14,0,0,0,4-4.82c-.29-.39-1.72.27-1.17-1.56,0,0,1.17-.48,2.27-1.05l2.25-1.13c.76-1.53-1.28-2.74,1.69-4.39-.56.15-1.4.35-.93-.66,5.44-6.23,8.94-14,11.77-21.91s5.06-15.94,8.53-23.92C238.75,145.8,238.94,144.29,239.2,142.58ZM194.71,36q-1.72-1.47-3.51-2.87A5.85,5.85,0,0,1,194.71,36Zm-4.18-3.5s0,0-.06,0l-.26-.2ZM159.38,8.75l-.11,0C157.48,7.64,158.11,8.07,159.38,8.75ZM142,7.1c4.51.3,1.59,1.82,2.42,1.64a14.84,14.84,0,0,0,4.71.65,14.27,14.27,0,0,0,3-.38c1.78-.36,3.41-.64,6.48,1.3,2.16,2.25-.83,2.74-.58,3.92A11.29,11.29,0,0,1,154,12.61a13.65,13.65,0,0,0-3.22-1.55l2.68,1.47a8.73,8.73,0,0,1-4.73-.9,4.13,4.13,0,0,0,1.06.69,115.34,115.34,0,0,0-16.43-3.16,8.47,8.47,0,0,1,1.44-.79A18,18,0,0,1,142,7.1Zm-27.25.15c-.12.39.3.85.62,1.15q-1.77.06-3.52.18A8.84,8.84,0,0,1,114.75,7.25Zm-24.06,1c.23,0,2,.12,3.82.31a17.78,17.78,0,0,1,4.61,1,1.22,1.22,0,0,1,.54.53c-1.4.24-2.81.49-4.19.79l-.51-2L94.88,11c-1.37.3-2.73.6-4.08.94A5.8,5.8,0,0,1,90.69,8.24Zm-21,7.13,1.27.39,1.61-1.28c.81-.64,1.65-1.22,1.65-1.22-.63,1.27-1.75,3.38-3,5.56q-2.92,1.34-5.76,2.83C66.41,19.34,67.73,16.83,69.73,15.37ZM40.79,34.74a1.47,1.47,0,0,0,.09.52C40.65,35.07,40.26,35.23,40.79,34.74ZM34.4,42.15a4.73,4.73,0,0,0,1.74,1.62c-.69.72-1.39,1.42-2.06,2.16,0-.68.1-1.32.15-1.87ZM4.42,98.5c.41-.52.87.1,1.39,1-.06-.35-.13-.69-.2-1,.4-.62.76-.8,1.09-.72-.18.77-.37,1.54-.53,2.32l-.36-.64c.08.38.15.79.22,1.21-.07.35-.12.7-.19,1.05a18.19,18.19,0,0,0-1.47,1.68l0-2.48C4.35,99.74,4.42,98.5,4.42,98.5Zm144.11,143.2-.88-.14C149.37,240.79,148.95,241.23,148.53,241.71Z"/><path class="cls-4" d="M184.36,18.78l.12.06Z"/><path class="cls-4" d="M183.85,19.34c.09-.25-.06-.78.39-.62-.24-.12-.61-.3-1-.46l-1.28-.55A4.9,4.9,0,0,1,183.85,19.34Z"/><path class="cls-4" d="M184.23,18.72l.13.06Z"/><path class="cls-4" d="M184.31,23.83c-.43,1,1.22,1.56,2.84,2.51a2.14,2.14,0,0,1-.27-.19C188.19,25.21,186.27,24.45,184.31,23.83Z"/><path class="cls-4" d="M188.94,27.53c.53-.37-.5-.51-1.42-1A9.65,9.65,0,0,1,188.94,27.53Z"/><path class="cls-4" d="M168.46,12.12c.71.63,1.08-1,1.37-.42C171.32,10.83,163.61,10.77,168.46,12.12Z"/><polygon class="cls-4" points="183.6 27.62 183.79 26.15 182.34 26.5 183.6 27.62"/><path class="cls-4" d="M171.64,19.57l2.43,1.66c.07-.22.46-.17.91,0C173.4,20.33,171.75,19.18,171.64,19.57Z"/><path class="cls-4" d="M177.14,22.15a12.41,12.41,0,0,0-2.16-1A7.12,7.12,0,0,0,177.14,22.15Z"/><path class="cls-4" d="M140.38,9.9c.8-.18,2-.15,1.61-.67L138.78,9C138.38,9.44,139.19,9.87,140.38,9.9Z"/><path class="cls-4" d="M241.75,131.2s.21-.63.35-1.26l.32-1.27-1,1.61Z"/><path class="cls-4" d="M241.64,125.71l-1.53-1.53c.06.57.19,1.67-.22,2.09Z"/><path class="cls-5" d="M208.05,85c-1-.12-1.13.47-2.24.26a1.54,1.54,0,0,0,.11-.22,2,2,0,0,0,.93-.18,10.63,10.63,0,0,0,.1-1.23,2.13,2.13,0,0,0,1.1-.17c.17-1.47.3-2.14-1-2.84-1.6.69-2.65.48-3.44-.12,0,0,0,0,0,0,.38,0,.91,0,1-.26-.47-.14-.81-.38-1.28-.52a.53.53,0,0,1-.09.45,11.51,11.51,0,0,1-1.32-1.8,1.82,1.82,0,0,0,0-.49,1,1,0,0,1-.27,0l-.1-.14q1.91.26,1.57-1.29a1.44,1.44,0,0,1-.76-.06c0-.49,0-.16.37-.06,1.29.18,1.83-.25,1.6-1.29-.74.19-1.55-.57-2.06-.19-.06-.13-.14-.26-.25-.44-1.71-.45-2.22.91-3.19.26a4.36,4.36,0,0,0,.55,1.19l-.44.17a4.44,4.44,0,0,0-1.07-.84,12.67,12.67,0,0,1-1.27.29,1.32,1.32,0,0,0,.13-.55,1,1,0,0,1,.8-.07.53.53,0,0,0,0-.39c.32-.26,5.28-6.26,5.27-6.66,2.3-.65.6-2.83.56-4-2.64-1.43-6-.91-7.67,1a6,6,0,0,0-5.11.26,2,2,0,0,1,.39.82,2,2,0,0,0-1.44.81c-.47.53-37.21,43.88-37.08,44.17-.05-.12-.89.22-1,.28-.39.3-.16.51-.34.72s0,.27-.13.43-1.06.33-1.36.52a2,2,0,0,1,.39.82,5.54,5.54,0,0,0-1,.27l-.13-.06c0-.05,0-.11,0-.16a6.57,6.57,0,0,0-.73-.32,3.15,3.15,0,0,1-.19-.81l-.26-.11c-.06-.4-1.12-1.23-1.43-1.59l-2-2.33-3.81-4.47-7.62-8.94L117.6,77.24c-1.6-1.73-3-3.58-4.56-5.36L110.6,69c-.65-.76-1.19-1.8-2.26-2.18a3.81,3.81,0,0,1-.25-1c-2.64-1.43-6-.91-7.67,1a6,6,0,0,0-5.11.26c.28.4-2.51,3.11-2.81,3.45-1.58,1.82-37.37,44.78-37.25,45.07-.84-.08-1.59.75-1.23,1.37a8.12,8.12,0,0,0-1.52.59,2.61,2.61,0,0,1,.24.41,6.88,6.88,0,0,0-1.42.06c-1.79-.27-9,.23-10.56,0a6.17,6.17,0,0,0-5,1.33,6.66,6.66,0,0,0-1.62.06,6.07,6.07,0,0,0-3.93.63c1.18,1.59-.46,1.84,0,3.36a6.49,6.49,0,0,0,2.23.26c-.28.46-.89.66-.64,1.55.73-.07,1.2.06,1.28.52-.47.23-1,.39-1,1,0,0,.75,1,.78,1.05a5,5,0,0,0,2.82.18c.48-.07,5.57-.12,5.89,0,.68.23,1.14-.38,1.6-.66.17.39.3.82,1.07.73l.19-.14a1.51,1.51,0,0,1,.12.37,5,5,0,0,0-1.58.58,2.6,2.6,0,0,1,.24.4,2.94,2.94,0,0,0-1.4.34l-.14-.25c-1.71-.45-2.22.91-3.19.26a4.86,4.86,0,0,0,.29.73l-.67.12H38l-.49-.33a11.6,11.6,0,0,1-1.53.34c-.4,0-.87-.06-1.47-.08,0,0,0,.08,0,.12-.55,0-1.17-.1-2.1-.12-.11,1.78-.89,1.48-1,3.36a4.79,4.79,0,0,1,2.13-.19c0,.07.31.09.46.06a6.51,6.51,0,0,0,1.64.13,2.24,2.24,0,0,0,.5-.12l.75.11c.28.54,1.26.51,1.21,1.31-1.1.89-3,1.73-2.41,3.23-.35.15-6.77,8.11-6.64,8.39-.08-.18-1.31.42-1.39.58s.24.72.24,1c0,.83-.7,1.44-.43,2.31a6.49,6.49,0,0,0,2.23.26c-.28.46-.89.66-.64,1.55.73-.07,1.2.06,1.28.52-.47.23-1,.39-1,1,.78.23.35,1.44,1.6,1.29.48-.39,3.54-3.68,4-3.86a1.76,1.76,0,0,0-.05-.57l.12-.17.08-.06a1.67,1.67,0,0,1,.13.73l.26.08a3,3,0,0,1-.23.56,67.79,67.79,0,0,0-4.76,5.65l-.8,0c-.11,1.78-.89,1.48-1,3.36,2.33-.78,3.86.77,5.43-.52-.16.89.77.88,1.13,1.35a2.8,2.8,0,0,0-1.13,1.37c-.91.67-1.68,1.48-1,2.71a7.54,7.54,0,0,1,3.51,0,2.31,2.31,0,0,0-.22,1.31c-.09,0-5.85,6.74-5.85,7.21,0,2.15,2,2.51,1.91,4.13,1.22.31,2,1,3.83.78,2-1.48,9.23-.78,8.89-3.21,0,0,20.29-23.12,20.22-23.94a5.39,5.39,0,0,0,1,0l.19-.12c.16-.09,34.51.27,35.73.12,2.28-1.68,11.31-.55,8.3-4.39,3.82-.92-1-5,.32-7.75-1-.12-1.13.45-2.2.26A2.22,2.22,0,0,1,109,140c.24-.6-.18-.83.2-1.31a1.81,1.81,0,0,0-.34-.21l.14,0v0a2.74,2.74,0,0,0,2.11,0c.17-1.47.3-2.14-1-2.84a4.9,4.9,0,0,1-1.54.41,2.86,2.86,0,0,0-.57-.41,6.23,6.23,0,0,1-.68.25,3.67,3.67,0,0,1-1.54-1.28c.19,0,.35,0,.3-.26-.19,0-.38,0-.32-.26.38,0,.91,0,1-.26-.47-.14-.81-.38-1.28-.52a.58.58,0,0,1-.17.56c-.3-.46-.59-.93-.91-1.33H102.2a2.31,2.31,0,0,0,.07-.6,3.14,3.14,0,0,0,1-.18v-.08a2.49,2.49,0,0,0,2.11.08c.07-1.06.19-1.3,0-1.77q1.36,0,1.1-1.29c.44.2,0,1.1.51,1.25,1.29.18,1.83-.25,1.6-1.29a6.75,6.75,0,0,1-1.71-.17c-.9-.05-1.86,0-2.76,0H91.8c-1.15,0-2.33-.05-3.48,0a18,18,0,0,1-2.5-.16,1.12,1.12,0,0,0,0-.27l.11,0c.14.08,10.4.18,11.18.09a6.33,6.33,0,0,1,1.6-1c0-.45,1.22-1.9,1.54-2.7.22-.12,2.47-.7,2.74-1.43.36,0,1,1.1.83,1.55.77.11.7-.47,1.6-.26.13-.62-.58-.56-.32-1.29,3.35-.38,1.33-2.87,1.28-4.13a6.91,6.91,0,0,0-4.32-.73,62,62,0,0,0-6.34,0,7,7,0,0,0-1.2-.07c.57-.29,11.39-13.11,11.5-13.57l.22.08c.07,0,24.47,29,29.54,35l2.58,3c.52.61.89,1.31,1.43,1.91s1.45.93,1.4,1.79l.26.08c0,.07.26.27.38.3a3.67,3.67,0,0,0,.22.91,1.76,1.76,0,0,0-.15,1.4l.27,0a2,2,0,0,0-.27,1.66c.58.06,1,.27,1.62.29-.46,0-.37,2.81-.33,3.12a.55.55,0,0,0,.39,0c-.13.59,0,1.67.14,1.63-.36.55-.2,1.76,0,1.73a3.91,3.91,0,0,0,0,1.73c-.17.59-.37,1.18-.49,1.78a6.55,6.55,0,0,1,1.94-.18c.55.06.35,5.75.35,6.22,0,1.48,0,3,0,4.45,0,.54,0,1.07,0,1.61a3.06,3.06,0,0,1,0,.53,5.5,5.5,0,0,1-.4.84c0,2.15,2,2.51,1.91,4.13,1.22.31,2,1,3.83.78,2.2-1.62,10.68-.63,8.57-4a1,1,0,0,0,.32-.58c0-.11.66-.47.77-.67s0-.59.06-.92c0-1,0-2,0-3v-6.28c0-2.31,0-4.62,0-6.93,0-2.12.5-4.65-.11-6.72a1.24,1.24,0,0,0,.1-.28c.56-.29.88-.68.81-1.23,1.3-.5,2.1-2.13,2.9-3.07l41.16-48.08c.35-.41.85-.79,1.17-1.18.06-.07.64-1.1.51-1,1.1-.42,1.62-1.08.84-2.28a1.57,1.57,0,0,0,.07-.42C211.25,91.53,206.81,87.61,208.05,85Z"/><path class="cls-6" d="M336.85,254.43v16H326.52v-13c0-2.11-1.19-3.44-3-3.44-2,0-3.3,1.61-3.3,4v12.44H309.91V236.39h10.33v12.53a8.76,8.76,0,0,1,7.62-4C333.13,244.88,336.85,248.64,336.85,254.43Z"/><path class="cls-6" d="M378.29,245.34v25.11H368v-2.52a8.14,8.14,0,0,1-6.38,2.89c-7,0-11.52-5.14-11.52-13.08,0-7.76,4.41-12.76,11.25-12.76a8.61,8.61,0,0,1,6.66,2.94v-2.57ZM368,258c0-2.94-1.47-4.87-3.72-4.87s-3.76,1.93-3.76,4.87,1.47,4.87,3.76,4.87S368,260.94,368,258Z"/><path class="cls-6" d="M416.62,262.73v7.71h-24v-6l4-4.41h-2.57v-5h7.16l1.84-2h-10v-7.71h23v6l-3.9,4.27h2.66v5h-7.25l-2,2.16Z"/><path class="cls-6" d="M477.47,236.39v34.06H467.15v-2.52a8.14,8.14,0,0,1-6.38,2.89c-7,0-11.52-5.14-11.52-13.08,0-7.76,4.41-12.76,11.25-12.76a8.61,8.61,0,0,1,6.66,2.94V236.39ZM467.15,258c0-2.94-1.47-4.87-3.72-4.87s-3.76,1.93-3.76,4.87,1.47,4.87,3.76,4.87S467.15,260.94,467.15,258Z"/><path class="cls-6" d="M511.85,260.53l5.74,5.14a15.28,15.28,0,0,1-12,5.14c-8.45,0-14-5-14-12.76,0-7.94,5.28-13.08,13.49-13.08,8,0,13.26,4.87,13.26,12.71l-15.74,3a3.92,3.92,0,0,0,3.76,2.52A8.19,8.19,0,0,0,511.85,260.53Zm-9.78-4.77,6.06-1.1c-.18-1.79-1.24-2.8-2.66-2.8C503.63,251.86,502.44,253.28,502.07,255.76Z"/><path class="cls-6" d="M544,262.09a5.51,5.51,0,0,0,2.3-.6l.6,8.58a14.9,14.9,0,0,1-4.87.87c-5.46,0-10.46-3.35-10.46-10.92V236.39h10.33V259.8C541.91,261.45,542.83,262.09,544,262.09Z"/><path class="cls-6" d="M623.19,254.43v16H612.87v-13c0-2.11-1.15-3.44-2.85-3.44-1.93,0-3.17,1.61-3.17,4v12.44H596.53v-13c0-2.11-1.15-3.44-2.85-3.44-1.93,0-3.17,1.61-3.17,4v12.44H580.19V245.34h10.33v3.53a8.65,8.65,0,0,1,7.48-4,8.37,8.37,0,0,1,8.12,5.37,8.74,8.74,0,0,1,8.22-5.37C619.52,244.88,623.19,248.64,623.19,254.43Z"/><path class="cls-6" d="M664,245.34v25.11H653.71V267a8.45,8.45,0,0,1-7.39,3.95c-5.14,0-8.77-3.76-8.77-9.55v-16h10.33v13c0,2.11,1.1,3.44,2.75,3.44,1.88,0,3.08-1.61,3.08-4V245.34Z"/><path class="cls-6" d="M706.72,254.43v16H696.39v-13c0-2.11-1.19-3.44-3-3.44-2,0-3.3,1.61-3.3,4v12.44H679.78V245.34h10.33v3.58a8.76,8.76,0,0,1,7.62-4C703,244.88,706.72,248.64,706.72,254.43Z"/><path class="cls-6" d="M748.16,236.39v34.06H737.84v-2.52a8.14,8.14,0,0,1-6.38,2.89c-7,0-11.52-5.14-11.52-13.08,0-7.76,4.41-12.76,11.25-12.76a8.61,8.61,0,0,1,6.66,2.94V236.39ZM737.84,258c0-2.94-1.47-4.87-3.72-4.87s-3.76,1.93-3.76,4.87,1.47,4.87,3.76,4.87S737.84,260.94,737.84,258Z"/><path class="cls-6" d="M790.66,257.87c0,7.85-5.55,12.94-14.18,12.94s-14.18-5.09-14.18-12.94,5.55-12.9,14.18-12.9S790.66,250,790.66,257.87Zm-17.95.14c0,2.94,1.47,4.87,3.76,4.87s3.76-1.93,3.76-4.87-1.47-4.87-3.76-4.87S772.72,255.07,772.72,258Z"/><path class="cls-6" d="M841,269.34a15.6,15.6,0,0,1-7.16,1.56c-5.74,0-9.46-3.3-9.46-8.54V239.69h10.28v7h5.87v6.52h-5.87v7.57a1.89,1.89,0,0,0,2,2.11,8.67,8.67,0,0,0,2.57-.64Z"/><path class="cls-6" d="M880.71,245.34v25.11H870.38V267A8.45,8.45,0,0,1,863,270.9c-5.14,0-8.77-3.76-8.77-9.55v-16h10.33v13c0,2.11,1.1,3.44,2.75,3.44,1.88,0,3.08-1.61,3.08-4V245.34Z"/><path class="cls-6" d="M943.91,254.43v16H933.58v-13c0-2.11-1.19-3.44-3-3.44-2,0-3.3,1.61-3.3,4v12.44H917V236.39h10.33v12.53a8.76,8.76,0,0,1,7.62-4C940.19,244.88,943.91,248.64,943.91,254.43Z"/><path class="cls-6" d="M985.49,257.87c0,7.85-5.55,12.94-14.18,12.94s-14.18-5.09-14.18-12.94,5.55-12.9,14.18-12.9S985.49,250,985.49,257.87Zm-17.95.14c0,2.94,1.47,4.87,3.76,4.87s3.76-1.93,3.76-4.87-1.47-4.87-3.76-4.87S967.54,255.07,967.54,258Z"/><path class="cls-6" d="M1024.41,245.34v23c0,7-5.6,11.43-14.27,11.43-4.54,0-9.46-1.93-12.21-5.42l4.36-5.46a11.3,11.3,0,0,0,7.39,2.89c2.71,0,4.45-1.24,4.45-3.17v-2.39a7.56,7.56,0,0,1-5.87,2.66c-6.47,0-10.69-4.73-10.69-12.12,0-7.16,4.08-11.8,10.42-11.8a8,8,0,0,1,6.15,2.71v-2.39Zm-10.28,11.75c0-2.75-1.33-4.5-3.44-4.5s-3.49,1.74-3.49,4.5,1.38,4.5,3.49,4.5S1014.13,259.8,1014.13,257.09Z"/><path class="cls-6" d="M1066.45,245.34v25.11h-10.33v-2.52a8.14,8.14,0,0,1-6.38,2.89c-7,0-11.52-5.14-11.52-13.08,0-7.76,4.41-12.76,11.25-12.76a8.61,8.61,0,0,1,6.66,2.94v-2.57ZM1056.12,258c0-2.94-1.47-4.87-3.72-4.87s-3.76,1.93-3.76,4.87,1.47,4.87,3.76,4.87S1056.12,260.94,1056.12,258Z"/><path class="cls-6" d="M1100.18,244.88v9.32c-4.64-.69-7.66,1-7.66,4.27v12h-10.33V245.34h10.33V249A8.93,8.93,0,0,1,1100.18,244.88Z"/></g></g></svg>