<svg xmlns="http://www.w3.org/2000/svg" viewBox="0 0 28.515 28.515"><defs><style>.a{fill:#c1c1c1;}.b{fill:#fff;}</style></defs><title>innovate-grey</title><circle class="a" cx="14.258" cy="14.258" r="14.258"/><path class="b" d="M12.412,21.9a.318.318,0,1,1,0-.635H16.1a.318.318,0,0,1,0,.635Z"/><path class="b" d="M12.822,23.163a.318.318,0,1,1,0-.635h2.872a.318.318,0,1,1,0,.635Z"/><path class="b" d="M13.959,18.771a.316.316,0,0,1-.633,0,16.775,16.775,0,0,0-.224-3.262,9.373,9.373,0,0,0-1.09-2.808.317.317,0,0,1,.553-.308,9.971,9.971,0,0,1,1.159,2.992A17.373,17.373,0,0,1,13.959,18.771Z"/><path class="b" d="M15.19,18.771a.316.316,0,0,1-.633,0,17.379,17.379,0,0,1,.234-3.386,9.972,9.972,0,0,1,1.159-2.992.316.316,0,0,1,.553.308,9.38,9.38,0,0,0-1.09,2.808A16.779,16.779,0,0,0,15.19,18.771Z"/><path class="b" d="M12.192,12.849a.317.317,0,0,1,.193-.6,4.109,4.109,0,0,1,.589.256l.017.009c.276.139.506.248.676.109l.39-.318a.317.317,0,0,1,.4.492l-.39.318c-.486.4-.884.2-1.363-.037l-.015-.007A3.547,3.547,0,0,0,12.192,12.849Z"/><path class="b" d="M14.576,5.641a.318.318,0,0,1-.635,0V4.41a.318.318,0,0,1,.635,0Z"/><path class="b" d="M16.131,12.245a.317.317,0,1,1,.193.6,3.6,3.6,0,0,0-.5.219l-.015.007c-.478.24-.877.433-1.363.037l-.39-.318a.317.317,0,1,1,.4-.492l.39.318c.171.139.4.03.676-.109l.017-.009A4.067,4.067,0,0,1,16.131,12.245Z"/><path class="b" d="M18.254,9.03a5.645,5.645,0,0,1,.568,7.328A20,20,0,0,1,17.4,18.086a2.567,2.567,0,0,0-.951,2.121.318.318,0,0,1-.318.318H12.412a.318.318,0,0,1-.318-.318,2.543,2.543,0,0,0-.952-2.1h0a19.105,19.105,0,0,1-1.447-1.747,5.65,5.65,0,0,1-.658-5.493l.006-.013A5.653,5.653,0,0,1,12.1,7.8h0A5.649,5.649,0,0,1,18.254,9.03Zm1.02,4A5.02,5.02,0,0,0,12.34,8.39h0a5.051,5.051,0,0,0-2.711,2.7l-.007.017a5.013,5.013,0,0,0,.584,4.875,18.7,18.7,0,0,0,1.4,1.695h0a3.017,3.017,0,0,1,1.113,2.211h3.1a3.04,3.04,0,0,1,1.109-2.227,19.294,19.294,0,0,0,1.382-1.678,5.007,5.007,0,0,0,.964-2.958Z"/><path class="b" d="M13.232,24.423a.318.318,0,1,1,0-.635h2.052a.318.318,0,0,1,0,.635Z"/><path class="b" d="M18.155,6.77a.316.316,0,1,1-.549-.316l.615-1.066a.316.316,0,0,1,.549.316Z"/><path class="b" d="M10.909,6.454a.316.316,0,1,1-.548.315L9.745,5.7a.316.316,0,0,1,.549-.315Z"/><path class="b" d="M8.14,8.99a.316.316,0,0,1-.315.549L6.759,8.923a.316.316,0,1,1,.315-.548Z"/><path class="b" d="M20.69,9.538a.316.316,0,0,1-.316-.549l1.066-.615a.316.316,0,1,1,.316.549Z"/><path class="b" d="M10.958,14.282a.316.316,0,0,1-.583.246,4.165,4.165,0,0,1-.248-.8,4.271,4.271,0,0,1-.085-.837.318.318,0,1,1,.635,0,3.607,3.607,0,0,0,.07.713,3.535,3.535,0,0,0,.21.681Zm0-2.789a.316.316,0,0,1-.583-.246,4.24,4.24,0,0,1,.386-.713h0A4.193,4.193,0,0,1,11.9,9.391h0A4.2,4.2,0,0,1,12.618,9a4.132,4.132,0,0,1,.8-.248,4.233,4.233,0,0,1,.838-.085.318.318,0,1,1,0,.635,3.656,3.656,0,0,0-.714.069,3.5,3.5,0,0,0-.68.21,3.579,3.579,0,0,0-.6.329h0a3.635,3.635,0,0,0-.971.972h0A3.573,3.573,0,0,0,10.958,11.493Z"/></svg>