<svg xmlns="http://www.w3.org/2000/svg" viewBox="0 0 28.515 28.515"><defs><style>.a{fill:#c1c1c1;}.b{fill:#fff;}</style></defs><title>life-grey</title><circle class="a" cx="14.258" cy="14.258" r="14.258"/><path class="b" d="M17.817,23.4a1.5,1.5,0,0,1-1.5-1.5l.433-9.092c-1.26-.473-2-1.845-2-3.723,0-2.156,1.378-3.91,3.072-3.91s3.072,1.754,3.072,3.91c0,1.879-.744,3.25-2,3.723l.432,9.078A1.5,1.5,0,0,1,17.817,23.4Zm0-17.647c-1.374,0-2.492,1.494-2.492,3.331,0,1.711.674,2.922,1.8,3.238a.289.289,0,0,1,.211.293l-.443,9.3a.921.921,0,0,0,1.842-.014l-.443-9.285a.29.29,0,0,1,.211-.293c1.129-.316,1.8-1.526,1.8-3.238C20.309,7.25,19.191,5.755,17.817,5.755Z"/><path class="b" d="M10.7,23.4a1.5,1.5,0,0,1-1.5-1.5l.433-9.1a3.037,3.037,0,0,1-2-2.842v-4.5a.29.29,0,0,1,.29-.29h1.3a.29.29,0,0,1,.29.29V9.354h.322V5.466a.29.29,0,0,1,.29-.29h1.168a.29.29,0,0,1,.29.29V9.354h.322V5.466a.29.29,0,0,1,.29-.29h1.3a.29.29,0,0,1,.29.29v4.5a3.037,3.037,0,0,1-2,2.842l.433,9.084A1.5,1.5,0,0,1,10.7,23.4ZM8.206,5.755V9.962a2.456,2.456,0,0,0,1.8,2.355.289.289,0,0,1,.212.293l-.443,9.306a.921.921,0,0,0,1.841-.014l-.443-9.292a.29.29,0,0,1,.212-.293,2.457,2.457,0,0,0,1.8-2.355V5.755h-.718V9.643a.29.29,0,0,1-.29.29h-.9a.29.29,0,0,1-.29-.29V5.755H10.4V9.643a.29.29,0,0,1-.29.29h-.9a.29.29,0,0,1-.29-.29V5.755Z"/></svg>