<svg xmlns="http://www.w3.org/2000/svg" viewBox="0 0 96.817 15.023"><defs><style>.a{fill:#d6d6d6;}.b{fill:#8c8c8c;}</style></defs><title>grey-stars</title><polygon class="a" points="68.919 12.457 64.038 15.023 64.97 9.588 61.021 5.738 66.478 4.945 68.919 0 71.36 4.945 76.817 5.738 72.868 9.588 73.8 15.023 68.919 12.457"/><polygon class="b" points="68.868 12.457 68.868 0 66.453 4.945 61.008 5.738 64.964 9.588 64.009 15.023 68.868 12.457"/><polygon class="a" points="88.919 12.457 84.038 15.023 84.97 9.588 81.021 5.738 86.478 4.945 88.919 0 91.36 4.945 96.817 5.738 92.868 9.588 93.8 15.023 88.919 12.457"/><polygon class="b" points="48.409 12.457 43.527 15.023 44.459 9.588 40.51 5.738 45.968 4.945 48.409 0 50.849 4.945 56.307 5.738 52.358 9.588 53.29 15.023 48.409 12.457"/><polygon class="b" points="28.153 12.457 23.272 15.023 24.204 9.588 20.255 5.738 25.713 4.945 28.153 0 30.594 4.945 36.051 5.738 32.102 9.588 33.035 15.023 28.153 12.457"/><polygon class="b" points="7.898 12.457 3.017 15.023 3.949 9.588 0 5.738 5.457 4.945 7.898 0 10.339 4.945 15.796 5.738 11.847 9.588 12.779 15.023 7.898 12.457"/></svg>