<svg xmlns="http://www.w3.org/2000/svg" viewBox="0 0 108.12 16.78"><defs><style>.a{fill:#d6d6d6;}.b{fill:#dbd900;}</style></defs><title>stars</title><polygon class="a" points="99.3 13.91 93.84 16.78 94.89 10.71 90.48 6.41 96.57 5.52 99.3 0 102.02 5.52 108.12 6.41 103.71 10.71 104.75 16.78 99.3 13.91"/><polygon class="b" points="76.68 13.91 71.23 16.78 72.27 10.71 67.86 6.41 73.95 5.52 76.68 0 79.4 5.52 85.5 6.41 81.09 10.71 82.13 16.78 76.68 13.91"/><polygon class="b" points="54.06 13.91 48.61 16.78 49.65 10.71 45.24 6.41 51.33 5.52 54.06 0 56.78 5.52 62.88 6.41 58.47 10.71 59.51 16.78 54.06 13.91"/><polygon class="b" points="31.44 13.91 25.99 16.78 27.03 10.71 22.62 6.41 28.71 5.52 31.44 0 34.16 5.52 40.26 6.41 35.85 10.71 36.89 16.78 31.44 13.91"/><polygon class="b" points="8.82 13.91 3.37 16.78 4.41 10.71 0 6.41 6.09 5.52 8.82 0 11.54 5.52 17.64 6.41 13.23 10.71 14.27 16.78 8.82 13.91"/><polygon class="b" points="99.24 13.91 99.24 0 96.54 5.52 90.46 6.41 94.88 10.71 93.81 16.78 99.24 13.91"/></svg>