<?xml version="1.0" standalone="no"?>
<!DOCTYPE svg PUBLIC "-//W3C//DTD SVG 20010904//EN"
 "http://www.w3.org/TR/2001/REC-SVG-20010904/DTD/svg10.dtd">
<svg version="1.0" xmlns="http://www.w3.org/2000/svg"
 width="244.000000pt" height="244.000000pt" viewBox="0 0 244.000000 244.000000"
 preserveAspectRatio="xMidYMid meet">
<metadata>
Created by potrace 1.11, written by Peter Selinger 2001-2013
</metadata>
<g transform="translate(0.000000,244.000000) scale(0.100000,-0.100000)"
fill="#000000" stroke="none">
<path d="M1010 2421 c-14 -4 -42 -15 -62 -24 -21 -9 -42 -17 -48 -17 -6 0 -13
-6 -16 -14 -3 -8 -33 -19 -72 -26 -46 -8 -91 -26 -142 -56 -41 -24 -80 -44
-87 -44 -6 0 -17 -8 -23 -17 -11 -17 -11 -17 -6 0 4 12 2 17 -6 15 -7 -3 -13
-13 -13 -24 0 -11 -16 -29 -40 -45 -22 -14 -49 -39 -60 -55 -24 -37 -41 -54
-54 -54 -6 0 -11 -6 -11 -14 0 -19 -30 -44 -30 -25 0 8 -5 6 -11 -6 -24 -44
-65 -101 -81 -113 -22 -16 -123 -179 -144 -232 -9 -22 -20 -40 -24 -40 -4 0
-14 -20 -21 -45 -7 -25 -17 -45 -21 -45 -12 0 -10 -48 2 -55 14 -8 13 -72 -1
-77 -12 -4 -20 -186 -8 -193 3 -2 4 -38 2 -80 -2 -45 0 -74 6 -71 5 3 11 -20
13 -51 4 -56 -6 -101 -26 -114 -5 -4 0 -13 12 -20 15 -9 18 -17 11 -25 -7 -9
-1 -29 21 -68 18 -31 36 -56 41 -56 5 0 14 -20 20 -45 7 -26 27 -63 50 -89 22
-24 39 -49 39 -55 0 -6 18 -31 40 -55 22 -24 40 -47 40 -52 0 -18 166 -174
185 -174 7 0 31 -18 56 -40 47 -43 244 -154 269 -152 8 1 31 2 50 3 19 0 29 3
22 6 -16 6 -5 23 15 23 9 0 13 -6 10 -14 -4 -10 11 -20 51 -35 69 -25 111 -31
266 -38 95 -4 117 -3 111 7 -6 10 -2 12 15 7 13 -3 32 -2 42 4 12 6 18 6 18
-1 0 -5 -5 -10 -12 -10 -6 0 -8 -3 -5 -7 4 -3 16 2 27 12 12 11 38 19 63 20
68 3 74 4 59 14 -8 5 17 17 73 36 82 26 217 102 217 121 -1 5 6 8 13 6 21 -4
90 34 112 61 10 13 24 26 30 28 25 8 164 152 159 164 -2 7 6 17 20 24 13 6 24
19 24 28 0 10 14 38 30 63 42 62 70 124 120 270 24 69 48 131 53 138 6 8 6 12
-2 12 -7 0 -9 5 -6 10 3 6 1 10 -5 10 -7 0 -8 6 0 19 5 11 10 45 10 76 0 52
-1 55 -16 40 -9 -9 -18 -14 -20 -13 -1 2 -4 40 -5 86 -7 291 -132 577 -346
789 -23 23 -38 45 -33 48 6 3 10 15 10 26 0 17 3 18 23 8 20 -11 21 -11 8 4
-7 10 -23 17 -35 17 -17 0 -18 2 -6 10 9 6 10 10 3 10 -19 0 -25 -18 -12 -42
l12 -23 -25 23 c-13 12 -36 22 -50 22 -14 0 -31 7 -39 16 -7 8 -31 25 -53 36
-23 11 -49 29 -59 39 -9 10 -23 16 -31 13 -7 -3 -16 2 -20 12 -12 31 62 10 92
-26 20 -24 27 -28 32 -17 4 13 9 13 35 1 22 -10 24 -13 8 -10 -27 5 -29 0 -5
-13 12 -6 21 -5 30 5 10 11 7 16 -18 29 -18 9 -28 20 -24 27 5 7 2 9 -8 6 -9
-4 -26 4 -42 18 -14 14 -26 22 -26 19 0 -3 -12 2 -27 11 -25 14 -26 14 -9 0
18 -14 18 -16 3 -16 -30 0 -87 28 -87 43 0 15 -58 44 -101 51 -15 2 -53 8 -85
12 -33 3 -64 7 -71 8 -7 1 -15 5 -19 9 -4 4 -19 4 -33 1 -21 -5 -23 -3 -11 6
12 9 3 10 -38 5 -29 -4 -58 -3 -65 2 -15 11 -182 14 -217 4z m442 -71 c3 -9
26 -11 101 -9 25 0 47 -19 40 -36 -4 -12 -10 -12 -38 -1 -18 8 -36 12 -38 9
-3 -3 -30 2 -60 11 -30 9 -68 16 -84 17 -24 0 -26 1 -8 9 28 12 83 12 87 0z
m-494 -17 c2 -8 -5 -13 -17 -13 -12 0 -21 6 -21 16 0 18 31 15 38 -3z m42 1
c0 -2 -7 -4 -15 -4 -8 0 -15 4 -15 10 0 5 7 7 15 4 8 -4 15 -8 15 -10z m-260
-64 c-6 -11 -24 -27 -41 -35 l-30 -16 17 26 c14 22 39 39 62 44 1 1 -2 -8 -8
-19z m1289 -474 c9 -11 4 -23 -24 -56 -19 -23 -32 -46 -29 -52 4 -6 10 -6 16
0 5 5 19 7 30 4 15 -4 17 -7 6 -13 -18 -12 2 -43 31 -47 22 -4 28 -17 11 -27
-7 -4 -7 -11 -2 -18 16 -21 21 -60 10 -80 -6 -11 -54 -71 -107 -132 -53 -61
-118 -138 -146 -170 -27 -33 -87 -102 -132 -155 -77 -88 -83 -98 -84 -140 -2
-181 -5 -222 -19 -230 -8 -5 -17 -7 -21 -4 -4 2 -21 -1 -38 -7 -51 -18 -70 6
-70 93 0 38 -4 75 -9 81 -4 7 -8 23 -7 37 1 14 -3 36 -8 50 -5 14 -10 33 -12
42 -3 15 -113 154 -163 206 -7 8 -51 61 -99 118 -79 95 -103 117 -103 97 0 -5
-23 -33 -50 -63 -27 -30 -50 -57 -50 -60 0 -3 23 -6 51 -5 60 0 84 -21 57 -49
-12 -12 -18 -13 -21 -3 -3 8 -16 1 -37 -20 l-33 -31 43 1 c49 2 65 -18 28 -32
-15 -6 -17 -10 -7 -10 9 -1 22 -8 29 -16 7 -8 21 -15 31 -15 21 0 26 -16 7
-23 -10 -4 -10 -8 1 -15 14 -10 21 -85 9 -98 -17 -16 -104 -23 -268 -23 l-175
1 -48 -54 c-26 -29 -73 -85 -105 -125 -49 -62 -63 -73 -102 -82 -36 -8 -50 -7
-67 5 -30 19 -28 32 7 74 36 41 37 50 8 50 -17 0 -19 3 -10 12 19 19 14 35
-10 33 -40 -4 -40 6 -1 53 35 43 31 49 -9 14 -16 -14 -18 -13 -18 6 0 12 -4
22 -10 22 -12 0 -14 37 -2 42 10 4 92 112 92 121 0 4 -13 7 -30 7 -36 0 -43
30 -7 31 51 1 97 14 97 26 0 4 -25 6 -55 5 -53 -4 -61 0 -56 31 0 4 -5 7 -13
7 -9 0 -12 7 -9 19 6 23 38 30 147 35 70 2 81 6 99 27 21 27 24 30 238 289 84
102 153 186 154 188 1 1 15 4 31 6 16 2 37 7 47 11 10 4 26 1 40 -8 12 -8 110
-118 217 -244 l195 -230 30 32 c47 49 79 87 238 278 81 97 151 177 155 178 4
0 17 2 29 3 13 2 26 6 30 9 11 12 40 8 52 -7z m-1946 -356 c-3 -12 -8 -19 -11
-16 -5 6 5 36 12 36 2 0 2 -9 -1 -20z"/>
<path d="M878 1163 c6 -2 18 -2 25 0 6 3 1 5 -13 5 -14 0 -19 -2 -12 -5z"/>
<path d="M1678 2313 c7 -3 16 -2 19 1 4 3 -2 6 -13 5 -11 0 -14 -3 -6 -6z"/>
<path d="M2040 2071 c18 -16 20 -19 6 -15 -13 5 -17 3 -14 -7 5 -16 56 -21 65
-6 3 6 1 7 -5 3 -6 -3 -14 0 -19 7 -4 8 -19 20 -33 26 l-25 12 25 -20z"/>
<path d="M2131 2018 c16 -31 16 -31 22 -15 3 7 -4 19 -15 26 -18 11 -18 10 -7
-11z"/>
<path d="M2106 1995 c20 -30 24 -31 17 -6 -3 11 -11 22 -19 25 -11 4 -11 0 2
-19z"/>
<path d="M2090 1962 c0 -12 19 -26 26 -19 2 2 -2 10 -11 17 -9 8 -15 8 -15 2z"/>
<path d="M2191 1873 c7 -12 15 -20 18 -17 3 2 -3 12 -13 22 -17 16 -18 16 -5
-5z"/>
<path d="M2177 1846 c-3 -8 1 -22 9 -33 13 -17 14 -16 8 12 -8 37 -10 39 -17
21z"/>
<path d="M2220 1856 c0 -2 7 -9 15 -16 9 -7 15 -8 15 -2 0 5 -7 12 -15 16 -8
3 -15 4 -15 2z"/>
<path d="M2221 1804 c0 -11 3 -14 6 -6 3 7 2 16 -1 19 -3 4 -6 -2 -5 -13z"/>
<path d="M2277 1717 c3 -5 7 -6 10 -3 3 3 14 1 24 -5 14 -7 19 -6 19 4 0 10
-10 14 -29 13 -16 0 -27 -4 -24 -9z"/>
<path d="M2300 1676 c0 -2 7 -9 15 -16 9 -7 15 -8 15 -2 0 5 -7 12 -15 16 -8
3 -15 4 -15 2z"/>
<path d="M2334 1540 c3 -14 9 -37 12 -52 4 -16 10 -28 15 -28 4 0 1 21 -8 48
-17 51 -30 73 -19 32z"/>
<path d="M2390 1200 c0 -5 5 -10 11 -10 5 0 7 5 4 10 -3 6 -8 10 -11 10 -2 0
-4 -4 -4 -10z"/>
</g>
</svg>
